<svg viewBox="-717 -373 1434 746" width="1434" height="746" style="background-color: rgb(255, 255, 255);" xmlns="http://www.w3.org/2000/svg"><path d="M-131.7781914670426,-35.71917000747617L-140.53931036409037,-38.062563190895794M-140.53931036409037,-60.48067847729449L-140.53931036409037,-38.062563190895794M-140.53931036409037,-38.062563190895794L-151.74074173934622,-17.697359031079635M-131.7781914670426,-58.13728529387486L-131.7781914670426,-35.71917000747617M-131.7781914670426,-35.71917000747617L-142.97962284229843,-15.353965847660007M-71.22405988086189,-19.513582293590193L-115.029655973312,-31.23054864057952M-115.029655973312,-53.231196123878014L-115.029655973312,-31.23054864057952M-115.029655973312,-31.23054864057952L-126.02249546258346,-11.24458318712524" style="fill:none;stroke:rgb(0,0,0);stroke-width:1;stroke-linecap:round"></path><path d="M-151.74074173934622,-17.697359031079635L-140.53931036409037,-38.062563190895794L-131.7781914670426,-35.71917000747617zM-131.7781914670426,-35.71917000747617L-140.53931036409037,-38.062563190895794L-140.53931036409037,-60.480678477294475zM-142.97962284229843,-15.35396584766001L-151.74074173934622,-17.697359031079635L-131.7781914670426,-35.71917000747617z" style="fill:rgb(191,148,255); fill-opacity: 0.4"></path><path d="M-74.91411443127016,-14.42094855133857L-118.71971052372027,-26.1379148983279M-118.71971052372027,-28.0784650645829L-118.71971052372027,-26.1379148983279M-118.71971052372027,-26.1379148983279L-119.6893254641312,-24.375068208797074" style="fill:none;stroke:rgb(0,0,0);stroke-width:1;stroke-linecap:round"></path><path d="M-131.7781914670426,-58.13728529387486L-131.7781914670426,-35.71917000747617L-140.53931036409037,-60.480678477294475z" style="fill:rgb(191,148,255); fill-opacity: 0.4"></path><path d="M-124.29631315450496,-28.551607154377688h10.83000000000012v5.4150000000000125h-10.83000000000012z" style="fill:rgb(255,255,255)"></path><path d="M-142.97962284229843,-15.35396584766001L-131.7781914670426,-35.71917000747617L-131.7781914670426,-58.13728529387486z" style="fill:rgb(191,148,255); fill-opacity: 0.4"></path><path d="M-119.6893254641312,-26.315618375052075L-119.6893254641312,-24.375068208797074M-119.6893254641312,-24.375068208797074L-75.88372937168108,-12.658101861807745" style="fill:none;stroke:rgb(0,0,0);stroke-width:1;stroke-linecap:round"></path><path d="M-118.71971052372028,-26.137914898327907L-119.6893254641312,-24.37506820879708L-119.6893254641312,-26.31561837505208zM-118.71971052372028,-28.078465064582904L-118.71971052372028,-26.137914898327907L-119.6893254641312,-26.31561837505208z" style="fill:rgb(0,0,0); fill-opacity: 0.4"></path><path d="M-74.91411443127016,-16.36149871759357L-118.71971052372027,-28.0784650645829M-118.71971052372027,-28.0784650645829L-119.6893254641312,-26.315618375052075" style="fill:none;stroke:rgb(0,0,0);stroke-width:1;stroke-linecap:round"></path><path d="M-126.02249546258346,-11.244583187125246L-115.02965597331202,-31.230548640579524L-71.2240598808619,-19.513582293590197zM-71.2240598808619,-19.513582293590197L-115.02965597331202,-31.230548640579524L-115.02965597331202,-53.231196123878014z" style="fill:rgb(191,148,255); fill-opacity: 0.4"></path><path d="M-71.22405988086187,-41.5142297768887L-71.22405988086189,-19.513582293590193M-71.22405988086189,-19.513582293590193L-82.21689937013335,0.4723831598640849M-138.75217581489653,-29.791077908478247L-147.5132947119443,-32.13447109189788M-147.5132947119443,-32.78132114731621L-147.5132947119443,-32.13447109189788M-147.5132947119443,-32.13447109189788L-147.8364996920813,-31.546855528720936M-119.6893254641312,-26.315618375052075L-75.88372937168108,-14.598652028062746" style="fill:none;stroke:rgb(0,0,0);stroke-width:1;stroke-linecap:round"></path><path d="M-152.76669241074026,-35.45920395171229h10.83000000000012v5.4150000000000125h-10.83000000000012z" style="fill:rgb(255,255,255)"></path><path d="M-147.8364996920813,-32.193705584139266L-147.8364996920813,-31.546855528720936M-147.8364996920813,-31.546855528720936L-139.07538079503354,-29.203462345301304" style="fill:none;stroke:rgb(0,0,0);stroke-width:1;stroke-linecap:round"></path><path d="M-147.5132947119443,-32.13447109189788L-147.8364996920813,-31.546855528720936L-147.8364996920813,-32.193705584139266zM-147.5132947119443,-32.78132114731621L-147.5132947119443,-32.13447109189788L-147.8364996920813,-32.193705584139266z" style="fill:rgb(0,0,0); fill-opacity: 0.4"></path><path d="M-138.75217581489653,-30.43792796389658L-147.5132947119443,-32.78132114731621M-147.5132947119443,-32.78132114731621L-147.8364996920813,-32.193705584139266" style="fill:none;stroke:rgb(0,0,0);stroke-width:1;stroke-linecap:round"></path><path d="M-119.6893254641312,-24.37506820879708L-118.71971052372028,-26.137914898327907L-74.91411443127016,-14.420948551338572zM-74.91411443127016,-14.420948551338572L-118.71971052372028,-26.137914898327907L-118.71971052372028,-28.078465064582904z" style="fill:rgb(0,0,0); fill-opacity: 0.4"></path><path d="M-125.10432560484739,-29.993393495817838h10.83000000000012v5.4150000000000125h-10.83000000000012z" style="fill:rgb(255,255,255)"></path><path d="M-147.8364996920813,-31.546855528720936L-147.5132947119443,-32.13447109189788L-138.75217581489653,-29.79107790847825zM-138.75217581489653,-29.79107790847825L-147.5132947119443,-32.13447109189788L-147.5132947119443,-32.78132114731621z" style="fill:rgb(0,0,0); fill-opacity: 0.4"></path><path d="M-147.8364996920813,-32.193705584139266L-139.07538079503354,-29.850312400719638M-151.74074173934622,-40.11547431747832L-151.74074173934622,-17.697359031079635M-151.74074173934622,-17.697359031079635L-142.97962284229843,-15.353965847660007" style="fill:none;stroke:rgb(0,0,0);stroke-width:1;stroke-linecap:round"></path><path d="M-140.53931036409037,-38.062563190895794L-151.74074173934622,-17.697359031079635L-151.74074173934622,-40.11547431747832z" style="fill:rgb(191,148,255); fill-opacity: 0.4"></path><path d="M-147.8364996920813,-32.193705584139266L-147.8364996920813,-31.546855528720936L-139.07538079503354,-29.850312400719645zM-147.8364996920813,-32.193705584139266L-139.07538079503354,-29.850312400719645L-147.5132947119443,-32.78132114731621z" style="fill:rgb(0,0,0); fill-opacity: 0.4"></path><path d="M-140.53931036409037,-60.480678477294475L-140.53931036409037,-38.062563190895794L-151.74074173934622,-40.11547431747832z" style="fill:rgb(191,148,255); fill-opacity: 0.4"></path><path d="M-139.07538079503354,-29.20346234530131L-147.8364996920813,-31.546855528720936L-138.75217581489653,-29.79107790847825zM-138.75217581489653,-30.437927963896584L-138.75217581489653,-29.79107790847825L-147.5132947119443,-32.78132114731621z" style="fill:rgb(0,0,0); fill-opacity: 0.4"></path><path d="M-131.7781914670426,-58.13728529387486L-140.53931036409037,-60.48067847729449M-140.53931036409037,-60.48067847729449L-151.74074173934622,-40.11547431747832M-138.75217581489653,-30.43792796389658L-138.75217581489653,-29.791077908478247M-138.75217581489653,-29.791077908478247L-139.07538079503354,-29.203462345301304" style="fill:none;stroke:rgb(0,0,0);stroke-width:1;stroke-linecap:round"></path><path d="M-147.8364996920813,-31.546855528720936L-139.07538079503354,-29.20346234530131L-139.07538079503354,-29.850312400719645zM-139.07538079503354,-29.850312400719645L-138.75217581489653,-30.437927963896584L-147.5132947119443,-32.78132114731621z" style="fill:rgb(0,0,0); fill-opacity: 0.4"></path><path d="M-153.42159208159032,-16.764231849599103h10.83000000000012v5.4149999999999965h-10.83000000000012zM-153.0898973908772,-36.81213855479035h10.83000000000012v5.4150000000000125h-10.83000000000012z" style="fill:rgb(255,255,255)"></path><path d="M-139.07538079503354,-29.20346234530131L-138.75217581489653,-29.79107790847825L-138.75217581489653,-30.437927963896584z" style="fill:rgb(0,0,0); fill-opacity: 0.4"></path><path d="M-139.07538079503354,-29.850312400719638L-139.07538079503354,-29.203462345301304" style="fill:none;stroke:rgb(0,0,0);stroke-width:1;stroke-linecap:round"></path><path d="M-138.91377811610067,-29.820695104082173L-138.91377811610067,-29.820695104082173L-138.91377811610067,-29.820695104082173zM-138.91377811610067,-29.820695104082173L-138.91377811610067,-29.820695104082173L-138.91377811610067,-29.820695104082173z" style="fill:rgb(255,20,20); fill-opacity: 0.4"></path><path d="M-138.75217581489653,-30.43792796389658L-139.07538079503354,-29.850312400719638" style="fill:none;stroke:rgb(0,0,0);stroke-width:1;stroke-linecap:round"></path><path d="M-139.07538079503354,-29.850312400719645L-139.07538079503354,-29.20346234530131L-138.75217581489653,-30.437927963896584zM-119.6893254641312,-26.31561837505208L-119.6893254641312,-24.37506820879708L-75.8837293716811,-14.59865202806275zM-119.6893254641312,-26.31561837505208L-75.8837293716811,-14.59865202806275L-118.71971052372028,-28.078465064582904z" style="fill:rgb(0,0,0); fill-opacity: 0.4"></path><path d="M-142.97962284229843,-37.7720811340587L-142.97962284229843,-15.353965847660007" style="fill:none;stroke:rgb(0,0,0);stroke-width:1;stroke-linecap:round"></path><path d="M-138.91377811610067,-29.820695104082173L-138.91377811610067,-29.820695104082173L-122.03236482123405,-25.44191450627178zM-138.91377811610067,-29.820695104082173L-138.91377811610067,-29.820695104082173L-122.03236482123405,-25.44191450627178zM-138.91377811610067,-29.820695104082173L-138.91377811610067,-29.820695104082173L-122.03236482123405,-25.44191450627178zM-138.91377811610067,-29.820695104082173L-138.91377811610067,-29.820695104082173L-122.03236482123405,-25.44191450627178z" style="fill:rgb(255,20,20); fill-opacity: 0.4"></path><path d="M-131.7781914670426,-58.13728529387486L-142.97962284229843,-37.7720811340587" style="fill:none;stroke:rgb(0,0,0);stroke-width:1;stroke-linecap:round"></path><path d="M-75.8837293716811,-12.658101861807749L-119.6893254641312,-24.37506820879708L-74.91411443127016,-14.420948551338572zM-74.91411443127016,-16.361498717593577L-74.91411443127016,-14.420948551338572L-118.71971052372028,-28.078465064582904zM-119.6893254641312,-24.37506820879708L-75.8837293716811,-12.658101861807749L-75.8837293716811,-14.59865202806275zM-75.8837293716811,-14.59865202806275L-74.91411443127016,-16.361498717593577L-118.71971052372028,-28.078465064582904z" style="fill:rgb(0,0,0); fill-opacity: 0.4"></path><path d="M-74.91411443127016,-16.36149871759357L-74.91411443127016,-14.42094855133857M-74.91411443127016,-14.42094855133857L-75.88372937168108,-12.658101861807745M-74.9141131230396,-16.36149795715041L-74.9141131230396,-14.420947790895404M-74.9141131230396,-14.420947790895404L-75.88372798639246,-12.658101241463052M-74.9141131230396,-14.420947790895404L-58.815416309850264,-11.227101172266252M-126.02249546258344,-33.24523067042374L-126.02249546258346,-11.24458318712524M-126.02249546258346,-11.24458318712524L-82.21689937013335,0.4723831598640849" style="fill:none;stroke:rgb(0,0,0);stroke-width:1;stroke-linecap:round"></path><path d="M-115.02965597331202,-31.230548640579524L-126.02249546258346,-11.244583187125246L-126.02249546258346,-33.245230670423744z" style="fill:rgb(191,148,255); fill-opacity: 0.4"></path><path d="M-11.685775660655748,-3.4941711794680073L-55.49137175310586,-15.211137526457335M-55.49137175310586,-32.72816145896867L-55.49137175310586,-15.211137526457335M-55.49137175310586,-15.211137526457335L-64.24392472074031,0.7017866467186177" style="fill:none;stroke:rgb(0,0,0);stroke-width:1;stroke-linecap:round"></path><path d="M-115.02965597331202,-53.231196123878014L-115.02965597331202,-31.230548640579524L-126.02249546258346,-33.245230670423744z" style="fill:rgb(191,148,255); fill-opacity: 0.4"></path><path d="M-71.22405988086187,-41.5142297768887L-115.029655973312,-53.231196123878014M-115.029655973312,-53.231196123878014L-126.02249546258344,-33.24523067042374" style="fill:none;stroke:rgb(0,0,0);stroke-width:1;stroke-linecap:round"></path><path d="M-82.21689937013335,0.47238315986408536L-126.02249546258346,-11.244583187125246L-71.2240598808619,-19.513582293590197z" style="fill:rgb(191,148,255); fill-opacity: 0.4"></path><path d="M-75.8837293716811,-12.658101861807749L-74.91411443127016,-14.420948551338572L-74.91411443127016,-16.361498717593577z" style="fill:rgb(0,0,0); fill-opacity: 0.4"></path><path d="M-74.91411429055405,-16.361498679955325L-74.91411429055405,-14.420948513700322L-75.88372923096497,-12.6581018241695z" style="fill:rgb(255,20,20); fill-opacity: 0.4"></path><path d="M-71.22405988086189,-41.5142297768887L-71.2240598808619,-19.513582293590197L-115.02965597331202,-53.231196123878014z" style="fill:rgb(191,148,255); fill-opacity: 0.4"></path><path d="M-75.88372937168108,-14.598652028062746L-75.88372937168108,-12.658101861807745M-75.88372798639246,-12.658101241463052L-75.88372798639246,-14.598651407718052M-75.88372798639246,-12.658101241463052L-58.815416309850264,-11.227101172266252" style="fill:none;stroke:rgb(0,0,0);stroke-width:1;stroke-linecap:round"></path><path d="M-151.74074173934622,-17.697359031079635L-142.97962284229843,-15.35396584766001L-142.97962284229843,-37.7720811340587z" style="fill:rgb(191,148,255); fill-opacity: 0.4"></path><path d="M-74.91411443127016,-16.36149871759357L-75.88372937168108,-14.598652028062746M-74.9141131230396,-16.36149795715041L-75.88372798639246,-14.598651407718052M-74.9141131230396,-16.36149795715041L-58.815416309850264,-11.227101172266252" style="fill:none;stroke:rgb(0,0,0);stroke-width:1;stroke-linecap:round"></path><path d="M-142.97962284229843,-37.7720811340587L-131.7781914670426,-58.13728529387486L-140.53931036409037,-60.480678477294475z" style="fill:rgb(191,148,255); fill-opacity: 0.4"></path><path d="M-75.8837293716811,-14.59865202806275L-75.8837293716811,-12.658101861807749L-74.91411443127016,-16.361498717593577z" style="fill:rgb(0,0,0); fill-opacity: 0.4"></path><path d="M-74.91411429055405,-16.361498679955325L-75.88372923096497,-12.6581018241695L-75.88372923096497,-14.598651990424498z" style="fill:rgb(255,20,20); fill-opacity: 0.4"></path><path d="M-142.97962284229843,-37.7720811340587L-142.97962284229843,-15.35396584766001L-131.7781914670426,-58.13728529387486z" style="fill:rgb(191,148,255); fill-opacity: 0.4"></path><path d="M-75.88372923096497,-12.6581018241695L-74.91411429055405,-14.420948513700322L-58.8154175722171,-11.22710152363718zM-74.91411429055405,-14.420948513700322L-74.91411429055405,-16.361498679955325L-58.8154175722171,-11.22710152363718z" style="fill:rgb(255,20,20); fill-opacity: 0.4"></path><path d="M-75.88372798639246,-14.598651407718052L-58.815416309850264,-11.227101172266252" style="fill:none;stroke:rgb(0,0,0);stroke-width:1;stroke-linecap:round"></path><path d="M-75.88372923096497,-14.598651990424498L-75.88372923096497,-12.6581018241695L-58.8154175722171,-11.22710152363718zM-74.91411429055405,-16.361498679955325L-75.88372923096497,-14.598651990424498L-58.8154175722171,-11.22710152363718z" style="fill:rgb(255,20,20); fill-opacity: 0.4"></path><path d="M-160.65328136518693,-30.527230717508605h10.83000000000012v5.4150000000000125h-10.83000000000012z" style="fill:rgb(255,255,255)"></path><path d="M-82.21689937013335,0.47238315986408536L-71.2240598808619,-19.513582293590197L-71.22405988086189,-41.5142297768887z" style="fill:rgb(191,148,255); fill-opacity: 0.4"></path><path d="M-154.08295090665405,-55.62228664898201h10.83000000000012v5.4150000000000125h-10.83000000000012zM-110.18110729290693,-5.624669096225405h10.83000000000012v5.415000000000001h-10.83000000000012z" style="fill:rgb(255,255,255)"></path><path d="M-151.74074173934622,-40.11547431747832L-151.74074173934622,-17.697359031079635L-142.97962284229843,-37.7720811340587zM-151.74074173934622,-40.11547431747832L-142.97962284229843,-37.7720811340587L-140.53931036409037,-60.480678477294475zM-64.24392472074031,0.7017866467186182L-55.49137175310586,-15.211137526457335L-11.685775660655743,-3.494171179468006zM-11.685775660655743,-3.494171179468006L-55.49137175310586,-15.211137526457335L-55.49137175310586,-32.72816145896867z" style="fill:rgb(191,148,255); fill-opacity: 0.4"></path><path d="M-134.93503512605642,-23.865720803168948h10.83000000000012v5.4149999999999965h-10.83000000000012z" style="fill:rgb(255,255,255)"></path><path d="M-82.21689937013335,-21.528264323434414L-82.21689937013335,0.4723831598640849" style="fill:none;stroke:rgb(0,0,0);stroke-width:1;stroke-linecap:round"></path><path d="M-128.46900052473526,-48.56242380754577h10.83000000000012v5.414999999999981h-10.83000000000012z" style="fill:rgb(255,255,255)"></path><path d="M-11.685775660655748,-21.011195111979344L-11.685775660655748,-3.4941711794680073M-11.685775660655748,-3.4941711794680073L-20.438328628290204,12.418752993707942M-71.22405988086187,-41.5142297768887L-82.21689937013335,-21.528264323434414M-151.74074173934622,-40.11547431747832L-142.97962284229843,-37.7720811340587" style="fill:none;stroke:rgb(0,0,0);stroke-width:1;stroke-linecap:round"></path><path d="M-126.02249546258346,-11.244583187125246L-82.21689937013335,0.47238315986408536L-82.21689937013335,-21.528264323434414zM-82.21689937013335,-21.528264323434414L-71.22405988086189,-41.5142297768887L-115.02965597331202,-53.231196123878014z" style="fill:rgb(191,148,255); fill-opacity: 0.4"></path><path d="M-64.24392472074031,-16.81523728579272L-64.24392472074031,0.7017866467186177M-64.24392472074031,0.7017866467186177L-20.438328628290204,12.418752993707942" style="fill:none;stroke:rgb(0,0,0);stroke-width:1;stroke-linecap:round"></path><path d="M-62.8714180240645,-27.44924665250853h10.83v5.4150000000000125h-10.83z" style="fill:rgb(255,255,255)"></path><path d="M-13.65082179089827,-13.024780267880946L-57.45641788334839,-24.741746614870273M-57.45641788334839,-26.03544672570694L-57.45641788334839,-24.741746614870273M-57.45641788334839,-24.741746614870273L-58.102827843622336,-23.56651548851639" style="fill:none;stroke:rgb(0,0,0);stroke-width:1;stroke-linecap:round"></path><path d="M-55.49137175310586,-15.211137526457335L-64.24392472074031,0.7017866467186182L-64.24392472074031,-16.81523728579272zM-55.49137175310586,-32.72816145896867L-55.49137175310586,-15.211137526457335L-64.24392472074031,-16.81523728579272z" style="fill:rgb(191,148,255); fill-opacity: 0.4"></path><path d="M-11.685775660655748,-21.011195111979344L-55.49137175310586,-32.72816145896867M-55.49137175310586,-32.72816145896867L-64.24392472074031,-16.81523728579272M57.50251735312322,15.031542020860991L4.935800756414102,0.9711820605608491M4.935800756414102,-15.620194665494953L4.935800756414102,0.9711820605608491M4.935800756414102,0.9711820605608491L-3.3542434976935005,16.043224023140464M-58.102827843622336,-24.860215599353058L-58.102827843622336,-23.56651548851639M-58.102827843622336,-23.56651548851639L-14.297231751172221,-11.849549141527065" style="fill:none;stroke:rgb(0,0,0);stroke-width:1;stroke-linecap:round"></path><path d="M-57.45641788334838,-24.741746614870273L-58.10282784362233,-23.56651548851639L-58.10282784362233,-24.860215599353058zM-57.45641788334838,-26.03544672570694L-57.45641788334838,-24.741746614870273L-58.10282784362233,-24.860215599353058z" style="fill:rgb(0,0,0); fill-opacity: 0.4"></path><path d="M-13.65082179089827,-14.318480378717615L-57.45641788334839,-26.03544672570694M-57.45641788334839,-26.03544672570694L-58.102827843622336,-24.860215599353058" style="fill:none;stroke:rgb(0,0,0);stroke-width:1;stroke-linecap:round"></path><path d="M-126.02249546258346,-33.245230670423744L-126.02249546258346,-11.244583187125246L-82.21689937013335,-21.528264323434414zM-126.02249546258346,-33.245230670423744L-82.21689937013335,-21.528264323434414L-115.02965597331202,-53.231196123878014z" style="fill:rgb(191,148,255); fill-opacity: 0.4"></path><path d="M-58.102827843622336,-24.860215599353058L-14.297231751172221,-13.143249252363733" style="fill:none;stroke:rgb(0,0,0);stroke-width:1;stroke-linecap:round"></path><path d="M-20.438328628290197,12.418752993707946L-64.24392472074031,0.7017866467186182L-11.685775660655743,-3.494171179468006zM-82.21689937013335,-21.528264323434414L-82.21689937013335,0.47238315986408536L-71.22405988086189,-41.5142297768887zM-11.685775660655741,-21.011195111979344L-11.685775660655743,-3.494171179468006L-55.49137175310586,-32.72816145896867z" style="fill:rgb(191,148,255); fill-opacity: 0.4"></path><path d="M-63.51782798433845,-28.861415747827987h10.83v5.4150000000000125h-10.83z" style="fill:rgb(255,255,255)"></path><path d="M-58.10282784362233,-23.56651548851639L-57.45641788334838,-24.741746614870273L-13.650821790898263,-13.024780267880944zM-13.650821790898263,-13.024780267880944L-57.45641788334838,-24.741746614870273L-57.45641788334838,-26.03544672570694z" style="fill:rgb(0,0,0); fill-opacity: 0.4"></path><path d="M-126.02249546258344,-33.24523067042374L-82.21689937013335,-21.528264323434414" style="fill:none;stroke:rgb(0,0,0);stroke-width:1;stroke-linecap:round"></path><path d="M-48.40253670825784,6.321701338013676h10.83v5.4150000000000045h-10.83z" style="fill:rgb(255,255,255)"></path><path d="M-58.10282784362233,-24.860215599353058L-58.10282784362233,-23.56651548851639L-14.297231751172214,-13.143249252363729zM-58.10282784362233,-24.860215599353058L-14.297231751172214,-13.143249252363729L-57.45641788334838,-26.03544672570694z" style="fill:rgb(0,0,0); fill-opacity: 0.4"></path><path d="M-20.438328628290197,12.418752993707946L-11.685775660655743,-3.494171179468006L-11.685775660655741,-21.011195111979344z" style="fill:rgb(191,148,255); fill-opacity: 0.4"></path><path d="M-14.297231751172214,-11.849549141527064L-58.10282784362233,-23.56651548851639L-13.650821790898263,-13.024780267880944zM-13.650821790898263,-14.318480378717613L-13.650821790898263,-13.024780267880944L-57.45641788334838,-26.03544672570694z" style="fill:rgb(0,0,0); fill-opacity: 0.4"></path><path d="M-73.15646454140735,-9.677538908138551h10.83v5.4150000000000045h-10.83z" style="fill:rgb(255,255,255)"></path><path d="M-58.10282784362233,-23.56651548851639L-14.297231751172214,-11.849549141527064L-14.297231751172214,-13.143249252363729zM-14.297231751172214,-13.143249252363729L-13.650821790898263,-14.318480378717613L-57.45641788334838,-26.03544672570694z" style="fill:rgb(0,0,0); fill-opacity: 0.4"></path><path d="M-67.81057304371055,-30.095910097377875h10.83v5.4150000000000125h-10.83z" style="fill:rgb(255,255,255)"></path><path d="M-3.354243497693496,16.043224023140464L4.935800756414105,0.9711820605608488L57.5025173531232,15.031542020860991zM57.5025173531232,15.031542020860991L4.935800756414105,0.9711820605608488L4.935800756414106,-15.620194665494953z" style="fill:rgb(191,148,255); fill-opacity: 0.4"></path><path d="M-20.4383286282902,-5.098270938803392L-20.438328628290204,12.418752993707942M-13.65082179089827,-14.318480378717615L-13.65082179089827,-13.024780267880946M-13.65082179089827,-13.024780267880946L-14.297231751172221,-11.849549141527065M-13.650822351156453,-14.318480166047275L-13.650822351156453,-13.02478036365275M-13.650822351156453,-13.02478036365275L-14.297232311430404,-11.849549237298866M-13.650822351156453,-13.02478036365275L2.768467441164088,-8.111907725390566M-11.685775660655748,-21.011195111979344L-20.4383286282902,-5.098270938803392" style="fill:none;stroke:rgb(0,0,0);stroke-width:1;stroke-linecap:round"></path><path d="M-14.297231751172214,-11.849549141527064L-13.650821790898263,-13.024780267880944L-13.650821790898263,-14.318480378717613z" style="fill:rgb(0,0,0); fill-opacity: 0.4"></path><path d="M-13.650821650182145,-14.318480341079363L-13.650821650182145,-13.024780230242692L-14.297231610456096,-11.849549103888812z" style="fill:rgb(255,20,20); fill-opacity: 0.4"></path><path d="M-14.297231751172221,-13.143249252363733L-14.297231751172221,-11.849549141527065M-14.297232311430404,-11.849549237298866L-14.297232311430404,-13.143249039693394M-14.297232311430404,-11.849549237298866L2.768467441164088,-8.111907725390566M-13.650822351156453,-14.318480166047275L-14.297232311430404,-13.143249039693394M-13.650822351156453,-14.318480166047275L2.768467441164088,-8.111907725390566M-13.65082179089827,-14.318480378717615L-14.297231751172221,-13.143249252363733" style="fill:none;stroke:rgb(0,0,0);stroke-width:1;stroke-linecap:round"></path><path d="M-64.24392472074031,0.7017866467186182L-20.438328628290197,12.418752993707946L-20.438328628290193,-5.09827093880339z" style="fill:rgb(191,148,255); fill-opacity: 0.4"></path><path d="M-14.297231751172214,-13.143249252363729L-14.297231751172214,-11.849549141527064L-13.650821790898263,-14.318480378717613z" style="fill:rgb(0,0,0); fill-opacity: 0.4"></path><path d="M-13.650821650182145,-14.318480341079363L-14.297231610456096,-11.849549103888812L-14.297231610456096,-13.14324921472548z" style="fill:rgb(255,20,20); fill-opacity: 0.4"></path><path d="M-20.438328628290193,-5.09827093880339L-11.685775660655741,-21.011195111979344L-55.49137175310586,-32.72816145896867z" style="fill:rgb(191,148,255); fill-opacity: 0.4"></path><path d="M-14.297231610456096,-11.849549103888812L-13.650821650182145,-13.024780230242692L2.7684674556112183,-8.11190763230014zM-13.650821650182145,-13.024780230242692L-13.650821650182145,-14.318480341079363L2.7684674556112183,-8.11190763230014z" style="fill:rgb(255,20,20); fill-opacity: 0.4"></path><path d="M-14.297232311430404,-13.143249039693394L2.768467441164088,-8.111907725390566" style="fill:none;stroke:rgb(0,0,0);stroke-width:1;stroke-linecap:round"></path><path d="M-14.297231610456096,-13.14324921472548L-14.297231610456096,-11.849549103888812L2.7684674556112183,-8.11190763230014zM-13.650821650182145,-14.318480341079363L-14.297231610456096,-13.14324921472548L2.7684674556112183,-8.11190763230014z" style="fill:rgb(255,20,20); fill-opacity: 0.4"></path><path d="M-64.24392472074031,-16.81523728579272L-64.24392472074031,0.7017866467186182L-20.438328628290193,-5.09827093880339zM-64.24392472074031,-16.81523728579272L-20.438328628290193,-5.09827093880339L-55.49137175310586,-32.72816145896867z" style="fill:rgb(191,148,255); fill-opacity: 0.4"></path><path d="M57.50251735312322,-1.559834705194811L57.50251735312322,15.031542020860991M57.50251735312322,15.031542020860991L49.21247309901561,30.10358398344061M-3.3542434976934956,-0.5481527029153374L-3.3542434976935005,16.043224023140464M-3.3542434976935005,16.043224023140464L49.21247309901561,30.10358398344061" style="fill:none;stroke:rgb(0,0,0);stroke-width:1;stroke-linecap:round"></path><path d="M4.935800756414105,0.9711820605608488L-3.354243497693496,16.043224023140464L-3.3542434976934947,-0.5481527029153377z" style="fill:rgb(191,148,255); fill-opacity: 0.4"></path><path d="M-64.24392472074031,-16.81523728579272L-20.4383286282902,-5.098270938803392" style="fill:none;stroke:rgb(0,0,0);stroke-width:1;stroke-linecap:round"></path><path d="M4.935800756414106,-15.620194665494953L4.935800756414105,0.9711820605608488L-3.3542434976934947,-0.5481527029153377z" style="fill:rgb(191,148,255); fill-opacity: 0.4"></path><path d="M57.50251735312322,-1.559834705194811L4.935800756414102,-15.620194665494953M4.935800756414102,-15.620194665494953L-3.3542434976934956,-0.5481527029153374" style="fill:none;stroke:rgb(0,0,0);stroke-width:1;stroke-linecap:round"></path><path d="M-20.438328628290193,-5.09827093880339L-20.438328628290197,12.418752993707946L-11.685775660655741,-21.011195111979344z" style="fill:rgb(191,148,255); fill-opacity: 0.4"></path><path d="M54.12593260688961,7.4992726097520155L1.559216010180496,-6.561087350548127M1.559216010180496,-8.501637516803129L1.559216010180496,-6.561087350548127M1.559216010180496,-6.561087350548127L0.5896010697695692,-4.798240661017303" style="fill:none;stroke:rgb(0,0,0);stroke-width:1;stroke-linecap:round"></path><path d="M-4.017386005862848,-8.974779442169085h10.830000000000005v5.4150000000000045h-10.830000000000005z" style="fill:rgb(255,255,255)"></path><path d="M49.21247309901561,30.103583983440604L-3.354243497693496,16.043224023140464L57.5025173531232,15.031542020860991zM57.5025173531232,-1.5598347051948103L57.5025173531232,15.031542020860991L4.935800756414106,-15.620194665494953z" style="fill:rgb(191,148,255); fill-opacity: 0.4"></path><path d="M0.5896010697695692,-6.738790827272305L0.5896010697695692,-4.798240661017303M0.5896010697695692,-4.798240661017303L53.15631766647867,9.262119299282839" style="fill:none;stroke:rgb(0,0,0);stroke-width:1;stroke-linecap:round"></path><path d="M1.5592160101804982,-6.561087350548129L0.5896010697695722,-4.798240661017304L0.5896010697695723,-6.738790827272306zM1.5592160101804982,-8.50163751680313L1.5592160101804982,-6.561087350548129L0.5896010697695723,-6.738790827272306z" style="fill:rgb(0,0,0); fill-opacity: 0.4"></path><path d="M54.12593260688961,5.558722443497015L1.559216010180496,-8.501637516803129M1.559216010180496,-8.501637516803129L0.5896010697695692,-6.738790827272305" style="fill:none;stroke:rgb(0,0,0);stroke-width:1;stroke-linecap:round"></path><path d="M16.867704936787376,22.834834872284915h10.83000000000003v5.4150000000000125h-10.83000000000003z" style="fill:rgb(255,255,255)"></path><path d="M0.5896010697695692,-6.738790827272305L53.15631766647867,7.321569133027838M125.67256993531134,33.37063999128325L73.10585333860223,19.3102800309831M73.10585333860223,7.72028277070112L73.10585333860223,19.3102800309831M73.10585333860223,19.3102800309831L67.31479743172063,29.838937654603935" style="fill:none;stroke:rgb(0,0,0);stroke-width:1;stroke-linecap:round"></path><path d="M-4.825398456205286,-10.416565783609235h10.830000000000005v5.4150000000000045h-10.830000000000005zM-12.26678253375034,6.126721927103007h10.83v5.4150000000000045h-10.83z" style="fill:rgb(255,255,255)"></path><path d="M49.21247309901561,30.103583983440604L57.5025173531232,15.031542020860991L57.5025173531232,-1.5598347051948103z" style="fill:rgb(191,148,255); fill-opacity: 0.4"></path><path d="M0.5896010697695722,-4.798240661017304L1.5592160101804982,-6.561087350548129L54.1259326068896,7.4992726097520155zM54.1259326068896,7.4992726097520155L1.5592160101804982,-6.561087350548129L1.5592160101804982,-8.50163751680313z" style="fill:rgb(0,0,0); fill-opacity: 0.4"></path><path d="M-7.152145562685898,-13.408383904804364h10.830000000000005v5.4150000000000045h-10.830000000000005z" style="fill:rgb(255,255,255)"></path><path d="M0.5896010697695723,-6.738790827272306L0.5896010697695722,-4.798240661017304L53.15631766647867,7.321569133027838zM0.5896010697695723,-6.738790827272306L53.15631766647867,7.321569133027838L1.5592160101804982,-8.50163751680313z" style="fill:rgb(0,0,0); fill-opacity: 0.4"></path><path d="M49.21247309901561,13.512207257384805L49.21247309901561,30.10358398344061" style="fill:none;stroke:rgb(0,0,0);stroke-width:1;stroke-linecap:round"></path><path d="M53.15631766647867,9.262119299282839L0.5896010697695722,-4.798240661017304L54.1259326068896,7.4992726097520155zM54.1259326068896,5.558722443497015L54.1259326068896,7.4992726097520155L1.5592160101804982,-8.50163751680313z" style="fill:rgb(0,0,0); fill-opacity: 0.4"></path><path d="M-3.354243497693496,16.043224023140464L49.21247309901561,30.103583983440604L49.21247309901561,13.512207257384805z" style="fill:rgb(191,148,255); fill-opacity: 0.4"></path><path d="M57.50251735312322,-1.559834705194811L49.21247309901561,13.512207257384805" style="fill:none;stroke:rgb(0,0,0);stroke-width:1;stroke-linecap:round"></path><path d="M49.21247309901561,13.512207257384805L57.5025173531232,-1.5598347051948103L4.935800756414106,-15.620194665494953zM-3.3542434976934947,-0.5481527029153377L-3.354243497693496,16.043224023140464L49.21247309901561,13.512207257384805z" style="fill:rgb(191,148,255); fill-opacity: 0.4"></path><path d="M122.69057262980543,37.091145595047855L70.12385603309633,23.030785634747716M70.12385603309633,21.73708552391105L70.12385603309633,23.030785634747716M70.12385603309633,23.030785634747716L69.47744607282237,24.206016761101598" style="fill:none;stroke:rgb(0,0,0);stroke-width:1;stroke-linecap:round"></path><path d="M64.70885650712145,20.323285761538287h10.83v5.4149999999999965h-10.83z" style="fill:rgb(255,255,255)"></path><path d="M-3.3542434976934947,-0.5481527029153377L49.21247309901561,13.512207257384805L4.935800756414106,-15.620194665494953z" style="fill:rgb(191,148,255); fill-opacity: 0.4"></path><path d="M-3.3542434976934956,-0.5481527029153374L49.21247309901561,13.512207257384805" style="fill:none;stroke:rgb(0,0,0);stroke-width:1;stroke-linecap:round"></path><path d="M0.5896010697695722,-4.798240661017304L53.15631766647867,9.262119299282839L53.15631766647867,7.321569133027838zM53.15631766647867,7.321569133027838L54.1259326068896,5.558722443497015L1.5592160101804982,-8.50163751680313z" style="fill:rgb(0,0,0); fill-opacity: 0.4"></path><path d="M67.31479743172062,29.838937654603935L73.10585333860223,19.3102800309831L125.67256993531132,33.37063999128324z" style="fill:rgb(191,148,255); fill-opacity: 0.4"></path><path d="M69.47744607282237,22.91231665026493L69.47744607282237,24.206016761101598M69.47744607282237,24.206016761101598L122.04416266953147,38.26637672140174" style="fill:none;stroke:rgb(0,0,0);stroke-width:1;stroke-linecap:round"></path><path d="M70.12385603309632,23.030785634747716L69.47744607282236,24.206016761101598L69.47744607282236,22.91231665026493zM70.12385603309632,21.73708552391105L70.12385603309632,23.030785634747716L69.47744607282236,22.91231665026493z" style="fill:rgb(0,0,0); fill-opacity: 0.4"></path><path d="M122.69057262980543,35.79744548421119L70.12385603309633,21.73708552391105M70.12385603309633,21.73708552391105L69.47744607282237,22.91231665026493" style="fill:none;stroke:rgb(0,0,0);stroke-width:1;stroke-linecap:round"></path><path d="M125.67256993531132,33.37063999128324L73.10585333860223,19.3102800309831L73.10585333860223,7.72028277070112z" style="fill:rgb(191,148,255); fill-opacity: 0.4"></path><path d="M69.47744607282237,22.91231665026493L122.04416266953147,36.972676610565074M54.12593079699519,5.558721927008771L54.12593079699519,7.499272093263772M54.12593079699519,7.499272093263772L53.15631589511331,9.26211871274536M54.12593079699519,7.499272093263772L70.40845900103717,13.986504493382204M54.12593260688961,5.558722443497015L54.12593260688961,7.4992726097520155M54.12593260688961,7.4992726097520155L53.15631766647867,9.262119299282839M67.31479743172063,18.24894039432196L67.31479743172063,29.838937654603935M67.31479743172063,29.838937654603935L119.88151402842973,43.899297614904086" style="fill:none;stroke:rgb(0,0,0);stroke-width:1;stroke-linecap:round"></path><path d="M64.0624465468475,18.911116666218835h10.83v5.4149999999999965h-10.83z" style="fill:rgb(255,255,255)"></path><path d="M73.10585333860223,19.3102800309831L67.31479743172062,29.838937654603935L67.31479743172062,18.248940394321956zM73.10585333860223,7.72028277070112L73.10585333860223,19.3102800309831L67.31479743172062,18.248940394321956z" style="fill:rgb(191,148,255); fill-opacity: 0.4"></path><path d="M125.67256993531134,21.780642731001265L73.10585333860223,7.72028277070112M73.10585333860223,7.72028277070112L67.31479743172063,18.24894039432196" style="fill:none;stroke:rgb(0,0,0);stroke-width:1;stroke-linecap:round"></path><path d="M54.125932132864456,5.55872231670644L54.125932132864456,7.49927248296144L53.15631719245353,9.262119172492262z" style="fill:rgb(255,20,20); fill-opacity: 0.4"></path><path d="M53.15631766647867,9.262119299282839L54.1259326068896,7.4992726097520155L54.1259326068896,5.558722443497015z" style="fill:rgb(0,0,0); fill-opacity: 0.4"></path><path d="M49.21247309901561,13.512207257384805L49.21247309901561,30.103583983440604L57.5025173531232,-1.5598347051948103z" style="fill:rgb(191,148,255); fill-opacity: 0.4"></path><path d="M53.15631589511331,9.26211871274536L53.15631589511331,7.3215685464903615M53.15631589511331,9.26211871274536L70.40845900103717,13.986504493382204M53.15631766647867,7.321569133027838L53.15631766647867,9.262119299282839M54.12593079699519,5.558721927008771L53.15631589511331,7.3215685464903615M54.12593079699519,5.558721927008771L70.40845900103717,13.986504493382204M54.12593260688961,5.558722443497015L53.15631766647867,7.321569133027838" style="fill:none;stroke:rgb(0,0,0);stroke-width:1;stroke-linecap:round"></path><path d="M53.15631719245353,9.262119172492262L54.125932132864456,7.49927248296144L70.40845709192295,13.986504103157332zM54.125932132864456,7.49927248296144L54.125932132864456,5.55872231670644L70.40845709192295,13.986504103157332z" style="fill:rgb(255,20,20); fill-opacity: 0.4"></path><path d="M69.47744607282236,24.206016761101598L70.12385603309632,23.030785634747716L122.6905726298054,37.09114559504786zM122.6905726298054,37.09114559504786L70.12385603309632,23.030785634747716L70.12385603309632,21.73708552391105z" style="fill:rgb(0,0,0); fill-opacity: 0.4"></path><path d="M54.125932132864456,5.55872231670644L53.15631719245353,9.262119172492262L53.15631719245353,7.321569006237263z" style="fill:rgb(255,20,20); fill-opacity: 0.4"></path><path d="M53.15631766647867,7.321569133027838L53.15631766647867,9.262119299282839L54.1259326068896,5.558722443497015z" style="fill:rgb(0,0,0); fill-opacity: 0.4"></path><path d="M53.15631719245353,7.321569006237263L53.15631719245353,9.262119172492262L70.40845709192295,13.986504103157332zM54.125932132864456,5.55872231670644L53.15631719245353,7.321569006237263L70.40845709192295,13.986504103157332z" style="fill:rgb(255,20,20); fill-opacity: 0.4"></path><path d="M53.15631589511331,7.3215685464903615L70.40845900103717,13.986504493382204" style="fill:none;stroke:rgb(0,0,0);stroke-width:1;stroke-linecap:round"></path><path d="M69.47744607282236,22.91231665026493L69.47744607282236,24.206016761101598L122.04416266953146,36.972676610565074zM69.47744607282236,22.91231665026493L122.04416266953146,36.972676610565074L70.12385603309632,21.73708552391105z" style="fill:rgb(0,0,0); fill-opacity: 0.4"></path><path d="M125.67256993531134,21.780642731001265L125.67256993531134,33.37063999128325M125.67256993531134,33.37063999128325L119.88151402842973,43.899297614904086" style="fill:none;stroke:rgb(0,0,0);stroke-width:1;stroke-linecap:round"></path><path d="M119.88151402842973,43.899297614904086L67.31479743172062,29.838937654603935L125.67256993531132,33.37063999128324zM125.67256993531132,21.78064273100126L125.67256993531132,33.37063999128324L73.10585333860223,7.72028277070112z" style="fill:rgb(191,148,255); fill-opacity: 0.4"></path><path d="M58.402258334393835,22.423125402847607h10.83v5.4150000000000125h-10.83z" style="fill:rgb(255,255,255)"></path><path d="M122.04416266953146,38.26637672140174L69.47744607282236,24.206016761101598L122.6905726298054,37.09114559504786zM122.6905726298054,35.79744548421119L122.6905726298054,37.09114559504786L70.12385603309632,21.73708552391105z" style="fill:rgb(0,0,0); fill-opacity: 0.4"></path><path d="M62.26740119311521,7.6604012392890235h10.83v5.4150000000000045h-10.83zM87.53674580493151,36.630548737765906h10.83000000000012v5.4150000000000125h-10.83000000000012z" style="fill:rgb(255,255,255)"></path><path d="M69.47744607282236,24.206016761101598L122.04416266953146,38.26637672140174L122.04416266953146,36.972676610565074zM122.04416266953146,36.972676610565074L122.6905726298054,35.79744548421119L70.12385603309632,21.73708552391105z" style="fill:rgb(0,0,0); fill-opacity: 0.4"></path><path d="M203.1979948405941,54.16204136968286L141.870157739626,37.758287796071905M141.870157739626,28.79104192826614L141.870157739626,37.758287796071905M141.870157739626,37.758287796071905L137.38958531281656,45.90436923584081M122.69056858762038,35.79744442194281L122.69056858762038,37.091144532779474M122.69056858762038,37.091144532779474L122.04415864661095,38.26637562410874M122.69056858762038,37.091144532779474L139.3129017207707,40.59103310601937M122.69057262980543,35.79744548421119L122.69057262980543,37.091145595047855M122.69057262980543,37.091145595047855L122.04416266953147,38.26637672140174" style="fill:none;stroke:rgb(0,0,0);stroke-width:1;stroke-linecap:round"></path><path d="M119.88151402842973,43.899297614904086L125.67256993531132,33.37063999128324L125.67256993531132,21.78064273100126z" style="fill:rgb(191,148,255); fill-opacity: 0.4"></path><path d="M67.31479743172063,18.24894039432196L119.88151402842973,32.3093003546221" style="fill:none;stroke:rgb(0,0,0);stroke-width:1;stroke-linecap:round"></path><path d="M122.69057215578026,35.797445357420614L122.69057215578026,37.09114546825728L122.04416219550632,38.26637659461117z" style="fill:rgb(255,20,20); fill-opacity: 0.4"></path><path d="M122.04416266953146,38.26637672140174L122.6905726298054,37.09114559504786L122.6905726298054,35.79744548421119z" style="fill:rgb(0,0,0); fill-opacity: 0.4"></path><path d="M122.04415864661095,38.26637562410874L122.04415864661095,36.97267551327207M122.04415864661095,38.26637562410874L139.3129017207707,40.59103310601937M122.04416266953147,36.972676610565074L122.04416266953147,38.26637672140174M122.69056858762038,35.79744442194281L122.04415864661095,36.97267551327207M122.69056858762038,35.79744442194281L139.3129017207707,40.59103310601937M122.69057262980543,35.79744548421119L122.04416266953147,36.972676610565074" style="fill:none;stroke:rgb(0,0,0);stroke-width:1;stroke-linecap:round"></path><path d="M67.31479743172062,18.248940394321956L67.31479743172062,29.838937654603935L119.88151402842973,32.3093003546221zM67.31479743172062,18.248940394321956L119.88151402842973,32.3093003546221L73.10585333860223,7.72028277070112z" style="fill:rgb(191,148,255); fill-opacity: 0.4"></path><path d="M122.69057215578026,35.797445357420614L122.04416219550632,38.26637659461117L122.04416219550632,36.9726764837745z" style="fill:rgb(255,20,20); fill-opacity: 0.4"></path><path d="M122.04416266953146,36.972676610565074L122.04416266953146,38.26637672140174L122.6905726298054,35.79744548421119z" style="fill:rgb(0,0,0); fill-opacity: 0.4"></path><path d="M122.04415864661095,36.97267551327207L139.3129017207707,40.59103310601937" style="fill:none;stroke:rgb(0,0,0);stroke-width:1;stroke-linecap:round"></path><path d="M67.31479743172062,29.838937654603935L119.88151402842973,43.899297614904086L119.88151402842973,32.3093003546221z" style="fill:rgb(191,148,255); fill-opacity: 0.4"></path><path d="M122.04416219550632,38.26637659461117L122.69057215578026,37.09114546825728L139.31290528405907,40.5910341062235zM122.69057215578026,37.09114546825728L122.69057215578026,35.797445357420614L139.31290528405907,40.5910341062235z" style="fill:rgb(255,20,20); fill-opacity: 0.4"></path><path d="M119.88151402842973,32.3093003546221L125.67256993531132,21.78064273100126L73.10585333860223,7.72028277070112z" style="fill:rgb(191,148,255); fill-opacity: 0.4"></path><path d="M122.04416219550632,36.9726764837745L122.04416219550632,38.26637659461117L139.31290528405907,40.5910341062235zM122.69057215578026,35.797445357420614L122.04416219550632,36.9726764837745L139.31290528405907,40.5910341062235z" style="fill:rgb(255,20,20); fill-opacity: 0.4"></path><path d="M119.88151402842973,32.3093003546221L119.88151402842973,43.899297614904086M125.67256993531134,21.780642731001265L119.88151402842973,32.3093003546221M201.11364161773818,57.460955810017L139.78580451677007,41.05720223640603M139.78580451677007,39.11665207015103L139.78580451677007,41.05720223640603M139.78580451677007,41.05720223640603L138.81618957635914,42.82004892593685" style="fill:none;stroke:rgb(0,0,0);stroke-width:1;stroke-linecap:round"></path><path d="M134.20920311546791,38.643510309213895h10.83000000000012v5.4150000000000125h-10.83000000000012z" style="fill:rgb(255,255,255)"></path><path d="M138.81618957635914,40.87949875968185L138.81618957635914,42.82004892593685M138.81618957635914,42.82004892593685L200.14402667732728,59.223802499547816" style="fill:none;stroke:rgb(0,0,0);stroke-width:1;stroke-linecap:round"></path><path d="M139.78580451677007,41.05720223640603L138.81618957635914,42.82004892593685L138.81618957635914,40.87949875968185zM139.78580451677007,39.11665207015103L139.78580451677007,41.05720223640603L138.81618957635914,40.87949875968185z" style="fill:rgb(0,0,0); fill-opacity: 0.4"></path><path d="M201.11364161773818,55.52040564376198L139.78580451677007,39.11665207015103M139.78580451677007,39.11665207015103L138.81618957635914,40.87949875968185" style="fill:none;stroke:rgb(0,0,0);stroke-width:1;stroke-linecap:round"></path><path d="M119.88151402842973,32.3093003546221L119.88151402842973,43.899297614904086L125.67256993531132,21.78064273100126z" style="fill:rgb(191,148,255); fill-opacity: 0.4"></path><path d="M138.81618957635914,40.87949875968185L200.14402667732728,57.283252333292815M137.38958531281656,36.93712336803505L137.38958531281656,45.90436923584081M137.38958531281656,45.90436923584081L198.71742241378467,62.30812280945178" style="fill:none;stroke:rgb(0,0,0);stroke-width:1;stroke-linecap:round"></path><path d="M137.3895853128166,45.90436923584082L141.870157739626,37.758287796071905L203.19799484059416,54.162041369682875zM141.870157739626,37.758287796071905L137.3895853128166,45.90436923584082L137.3895853128166,36.93712336803505zM203.19799484059416,54.162041369682875L141.870157739626,37.758287796071905L141.870157739626,28.791041928266143zM141.870157739626,28.791041928266143L141.870157739626,37.758287796071905L137.3895853128166,36.93712336803505z" style="fill:rgb(191,148,255); fill-opacity: 0.4"></path><path d="M203.1979948405941,45.1947955018771L141.870157739626,28.79104192826614M141.870157739626,28.79104192826614L137.38958531281656,36.93712336803505" style="fill:none;stroke:rgb(0,0,0);stroke-width:1;stroke-linecap:round"></path><path d="M133.4011906651255,37.201723967773745h10.83000000000012v5.4150000000000125h-10.83000000000012z" style="fill:rgb(255,255,255)"></path><path d="M138.81618957635914,42.82004892593685L139.78580451677007,41.05720223640603L201.1136416177382,57.460955810017zM201.1136416177382,57.460955810017L139.78580451677007,41.05720223640603L139.78580451677007,39.11665207015103zM138.81618957635914,40.87949875968185L138.81618957635914,42.82004892593685L200.14402667732728,57.283252333292815zM138.81618957635914,40.87949875968185L200.14402667732728,57.283252333292815L139.78580451677007,39.11665207015103z" style="fill:rgb(0,0,0); fill-opacity: 0.4"></path><path d="M128.4770468012566,39.79993289742949h10.83000000000012v5.4150000000000125h-10.83000000000012zM131.6869479489163,27.539872411368627h10.83000000000012v5.4150000000000125h-10.83000000000012z" style="fill:rgb(255,255,255)"></path><path d="M305.8724670656465,116.46744579541597L300.03172086641274,114.90518360148768M300.03172086641274,40.92540488364801L300.03172086641274,114.90518360148768M300.03172086641274,114.90518360148768L297.7914346530081,118.97822432137214M305.8724670656465,42.48766707757629L305.8724670656465,116.46744579541597M305.8724670656465,116.46744579541597L303.6321808522418,120.54048651530043" style="fill:none;stroke:rgb(0,0,0);stroke-width:1;stroke-linecap:round"></path><path d="M297.7914346530081,118.97822432137214L300.03172086641274,114.90518360148768L305.8724670656465,116.46744579541597z" style="fill:rgb(191,148,255); fill-opacity: 0.4"></path><path d="M292.91941125284495,118.04257128425009h10.83000000000012v5.41499999999995h-10.83000000000012zM161.99209390918259,53.867677236324546h10.83000000000012v5.4150000000000125h-10.83000000000012z" style="fill:rgb(255,255,255)"></path><path d="M200.14402667732728,59.223802499547816L138.81618957635914,42.82004892593685L201.1136416177382,57.460955810017z" style="fill:rgb(0,0,0); fill-opacity: 0.4"></path><path d="M198.7174224137847,62.30812280945178L137.3895853128166,45.90436923584082L203.19799484059416,54.162041369682875z" style="fill:rgb(191,148,255); fill-opacity: 0.4"></path><path d="M203.1979948405941,45.1947955018771L203.1979948405941,54.16204136968286M203.1979948405941,54.16204136968286L198.71742241378467,62.30812280945178" style="fill:none;stroke:rgb(0,0,0);stroke-width:1;stroke-linecap:round"></path><path d="M201.1136416177382,55.520405643762L201.1136416177382,57.460955810017L139.78580451677007,39.11665207015103z" style="fill:rgb(0,0,0); fill-opacity: 0.4"></path><path d="M203.19799484059416,45.1947955018771L203.19799484059416,54.162041369682875L141.870157739626,28.791041928266143z" style="fill:rgb(191,148,255); fill-opacity: 0.4"></path><path d="M137.38958531281656,36.93712336803505L198.71742241378467,53.34087694164601" style="fill:none;stroke:rgb(0,0,0);stroke-width:1;stroke-linecap:round"></path><path d="M138.81618957635914,42.82004892593685L200.14402667732728,59.223802499547816L200.14402667732728,57.283252333292815zM200.14402667732728,57.283252333292815L201.1136416177382,55.520405643762L139.78580451677007,39.11665207015103z" style="fill:rgb(0,0,0); fill-opacity: 0.4"></path><path d="M303.6321808522418,120.54048651530043L297.7914346530081,118.97822432137214L305.8724670656465,116.46744579541597z" style="fill:rgb(191,148,255); fill-opacity: 0.4"></path><path d="M297.7914346530081,44.99844560353246L297.7914346530081,118.97822432137214M297.7914346530081,118.97822432137214L303.6321808522418,120.54048651530043" style="fill:none;stroke:rgb(0,0,0);stroke-width:1;stroke-linecap:round"></path><path d="M137.3895853128166,36.93712336803505L137.3895853128166,45.90436923584082L198.7174224137847,53.34087694164602zM137.3895853128166,36.93712336803505L198.7174224137847,53.34087694164602L141.870157739626,28.791041928266143z" style="fill:rgb(191,148,255); fill-opacity: 0.4"></path><path d="M303.6321808522418,46.56070779746075L303.6321808522418,120.54048651530043M328.5660443559731,122.53744381216218L322.72529815673937,120.97518161823392M322.72529815673937,46.995402900394225L322.72529815673937,120.97518161823392M322.72529815673937,120.97518161823392L320.48501194333465,125.04822233811838M201.113639134156,55.52040501934856L201.113639134156,57.46095503138248M201.113639134156,57.46095503138248L200.14402422264183,59.22380166837638M201.113639134156,57.46095503138248L217.6461128637825,60.06952016718566M201.11364161773818,55.52040564376198L201.11364161773818,57.460955810017M201.11364161773818,57.460955810017L200.14402667732728,59.223802499547816M328.5660443559731,48.557665094322516L328.5660443559731,122.53744381216218M328.5660443559731,122.53744381216218L326.3257581425684,126.61048453204664" style="fill:none;stroke:rgb(0,0,0);stroke-width:1;stroke-linecap:round"></path><path d="M320.48501194333465,125.04822233811838L322.72529815673937,120.97518161823392L328.5660443559731,122.53744381216221z" style="fill:rgb(191,148,255); fill-opacity: 0.4"></path><path d="M201.1136405289718,55.5204053525426L201.1136405289718,57.4609555187976L200.14402558856085,59.22380220832843z" style="fill:rgb(255,20,20); fill-opacity: 0.4"></path><path d="M200.14402667732728,59.223802499547816L201.1136416177382,57.460955810017L201.1136416177382,55.520405643762z" style="fill:rgb(0,0,0); fill-opacity: 0.4"></path><path d="M137.3895853128166,45.90436923584082L198.7174224137847,62.30812280945178L198.7174224137847,53.34087694164602zM198.7174224137847,62.30812280945178L203.19799484059416,54.162041369682875L203.19799484059416,45.1947955018771z" style="fill:rgb(191,148,255); fill-opacity: 0.4"></path><path d="M315.6129885431715,124.11256930099633h10.83000000000012v5.41499999999995h-10.83000000000012z" style="fill:rgb(255,255,255)"></path><path d="M198.7174224137847,53.34087694164602L203.19799484059416,45.1947955018771L141.870157739626,28.791041928266143z" style="fill:rgb(191,148,255); fill-opacity: 0.4"></path><path d="M200.14402422264183,59.22380166837638L200.14402422264183,57.28325165634245M200.14402422264183,59.22380166837638L217.6461128637825,60.06952016718566M200.14402667732728,57.283252333292815L200.14402667732728,59.223802499547816M201.113639134156,55.52040501934856L200.14402422264183,57.28325165634245M201.113639134156,55.52040501934856L217.6461128637825,60.06952016718566M201.11364161773818,55.52040564376198L200.14402667732728,57.283252333292815" style="fill:none;stroke:rgb(0,0,0);stroke-width:1;stroke-linecap:round"></path><path d="M201.1136405289718,55.5204053525426L200.14402558856085,59.22380220832843L200.14402558856085,57.28325204207342z" style="fill:rgb(255,20,20); fill-opacity: 0.4"></path><path d="M200.14402667732728,57.283252333292815L200.14402667732728,59.223802499547816L201.1136416177382,55.520405643762z" style="fill:rgb(0,0,0); fill-opacity: 0.4"></path><path d="M326.3257581425684,126.61048453204667L320.48501194333465,125.04822233811838L328.5660443559731,122.53744381216221z" style="fill:rgb(191,148,255); fill-opacity: 0.4"></path><path d="M200.14402558856085,59.22380220832843L201.1136405289718,57.4609555187976L217.64610140573697,60.069517149551054zM201.1136405289718,57.4609555187976L201.1136405289718,55.5204053525426L217.64610140573697,60.069517149551054z" style="fill:rgb(255,20,20); fill-opacity: 0.4"></path><path d="M320.48501194333465,51.068443620278686L320.48501194333465,125.04822233811838M320.48501194333465,125.04822233811838L326.3257581425684,126.61048453204664M200.14402422264183,57.28325165634245L217.6461128637825,60.06952016718566M198.71742241378467,53.34087694164601L198.71742241378467,62.30812280945178M203.1979948405941,45.1947955018771L198.71742241378467,53.34087694164601" style="fill:none;stroke:rgb(0,0,0);stroke-width:1;stroke-linecap:round"></path><path d="M200.14402558856085,57.28325204207342L200.14402558856085,59.22380220832843L217.64610140573697,60.069517149551054zM201.1136405289718,55.5204053525426L200.14402558856085,57.28325204207342L217.64610140573697,60.069517149551054z" style="fill:rgb(255,20,20); fill-opacity: 0.4"></path><path d="M280.2585177644694,74.86823908095661L218.93068066350128,58.46448550734564M218.93068066350128,53.980862573442764L218.93068066350128,58.46448550734564M218.93068066350128,58.46448550734564L216.69039445009656,62.5375262272301M326.3257581425684,52.630705814206976L326.3257581425684,126.61048453204664" style="fill:none;stroke:rgb(0,0,0);stroke-width:1;stroke-linecap:round"></path><path d="M198.7174224137847,53.34087694164602L198.7174224137847,62.30812280945178L203.19799484059416,45.1947955018771z" style="fill:rgb(191,148,255); fill-opacity: 0.4"></path><path d="M216.69039445009656,58.05390329332722L216.69039445009656,62.5375262272301M216.69039445009656,62.5375262272301L278.0182315510647,78.94127980084106" style="fill:none;stroke:rgb(0,0,0);stroke-width:1;stroke-linecap:round"></path><path d="M218.93068066350128,58.46448550734564L216.6903944500966,62.5375262272301L216.6903944500966,58.053903293327224zM218.93068066350128,53.980862573442764L218.93068066350128,58.46448550734564L216.6903944500966,58.053903293327224z" style="fill:rgb(191,148,255); fill-opacity: 0.4"></path><path d="M351.25962164629976,125.12966537662545L345.418875447066,123.56740318269718M345.418875447066,56.54317736942341L345.418875447066,123.56740318269718M345.418875447066,123.56740318269718L343.17858923366134,127.64044390258162M280.2585177644694,70.38461614705372L218.93068066350128,53.980862573442764M218.93068066350128,53.980862573442764L216.69039445009656,58.05390329332722M351.25962164629976,58.105439563351695L351.25962164629976,125.12966537662545M351.25962164629976,125.12966537662545L349.01933543289505,129.20270609650993" style="fill:none;stroke:rgb(0,0,0);stroke-width:1;stroke-linecap:round"></path><path d="M343.17858923366134,127.64044390258162L345.418875447066,123.56740318269718L351.25962164629976,125.12966537662545z" style="fill:rgb(191,148,255); fill-opacity: 0.4"></path><path d="M338.3065658334982,126.70479235238h10.83000000000012v5.41499999999995h-10.83000000000012z" style="fill:rgb(255,255,255)"></path><path d="M216.6903944500966,62.5375262272301L218.93068066350128,58.46448550734564L280.2585177644694,74.8682390809566zM280.2585177644694,74.8682390809566L218.93068066350128,58.46448550734564L218.93068066350128,53.980862573442764z" style="fill:rgb(191,148,255); fill-opacity: 0.4"></path><path d="M207.7778559354586,58.67490136136624h10.83000000000012v5.4150000000000125h-10.83000000000012zM209.86761397949394,50.693172690442886h10.83000000000012v5.4150000000000125h-10.83000000000012z" style="fill:rgb(255,255,255)"></path><path d="M349.01933543289505,129.20270609650993L343.17858923366134,127.64044390258162L351.25962164629976,125.12966537662545z" style="fill:rgb(191,148,255); fill-opacity: 0.4"></path><path d="M343.17858923366134,60.616218089307864L343.17858923366134,127.64044390258162M343.17858923366134,127.64044390258162L349.01933543289505,129.20270609650993M216.69039445009656,58.05390329332722L278.0182315510647,74.45765686693818M349.01933543289505,62.178480283236155L349.01933543289505,129.20270609650993" style="fill:none;stroke:rgb(0,0,0);stroke-width:1;stroke-linecap:round"></path><path d="M241.29290304338457,70.50083423946997h10.83000000000012v5.4150000000000125h-10.83000000000012z" style="fill:rgb(255,255,255)"></path><path d="M216.6903944500966,58.053903293327224L216.6903944500966,62.5375262272301L278.0182315510647,74.45765686693818zM216.6903944500966,58.053903293327224L278.0182315510647,74.45765686693818L218.93068066350128,53.980862573442764zM305.8724670656465,116.46744579541597L300.03172086641274,114.90518360148768L300.03172086641274,40.925404883648zM278.0182315510647,78.94127980084106L216.6903944500966,62.5375262272301L280.2585177644694,74.8682390809566zM280.2585177644694,70.38461614705372L280.2585177644694,74.8682390809566L218.93068066350128,53.980862573442764zM300.03172086641274,114.90518360148768L297.7914346530081,118.97822432137214L297.7914346530081,44.99844560353246zM303.6321808522418,120.54048651530043L305.8724670656465,116.46744579541597L305.8724670656465,42.48766707757628z" style="fill:rgb(191,148,255); fill-opacity: 0.4"></path><path d="M280.2585177644694,70.38461614705372L280.2585177644694,74.86823908095661M280.2585177644694,74.86823908095661L278.0182315510647,78.94127980084106" style="fill:none;stroke:rgb(0,0,0);stroke-width:1;stroke-linecap:round"></path><path d="M216.6903944500966,62.5375262272301L278.0182315510647,78.94127980084106L278.0182315510647,74.45765686693818zM278.0182315510647,74.45765686693818L280.2585177644694,70.38461614705372L218.93068066350128,53.980862573442764zM297.7914346530081,118.97822432137214L303.6321808522418,120.54048651530043L303.6321808522418,46.56070779746074zM328.5660443559731,122.53744381216221L322.72529815673937,120.97518161823392L322.72529815673937,46.99540290039424zM278.0182315510647,78.94127980084106L280.2585177644694,74.8682390809566L280.2585177644694,70.38461614705372z" style="fill:rgb(191,148,255); fill-opacity: 0.4"></path><path d="M278.0182315510647,74.45765686693818L278.0182315510647,78.94127980084106M280.2585177644694,70.38461614705372L278.0182315510647,74.45765686693818" style="fill:none;stroke:rgb(0,0,0);stroke-width:1;stroke-linecap:round"></path><path d="M322.72529815673937,120.97518161823392L320.48501194333465,125.04822233811838L320.48501194333465,51.06844362027869zM326.3257581425684,126.61048453204667L328.5660443559731,122.53744381216221L328.5660443559731,48.557665094322516z" style="fill:rgb(191,148,255); fill-opacity: 0.4"></path><path d="M282.9013882159499,75.66946556890126L292.45132584333055,78.22384920426403" style="fill:none;stroke:rgb(0,0,0);stroke-width:1;stroke-linecap:round"></path><path d="M278.0182315510647,74.45765686693818L278.0182315510647,78.94127980084106L280.2585177644694,70.38461614705372zM320.48501194333465,125.04822233811838L326.3257581425684,126.61048453204667L326.3257581425684,52.630705814206976z" style="fill:rgb(191,148,255); fill-opacity: 0.4"></path><path d="M292.9262636386004,76.05208807894397L291.97638804806064,77.77904686480959L298.068936212378,79.72642781330096zM291.97638804806064,77.77904686480959L291.68286031802097,80.12070742830954L298.068936212378,79.72642781330096z" style="fill:rgb(0,0,0)"></path><path d="M351.25962164629976,125.12966537662545L345.418875447066,123.56740318269718L345.418875447066,56.54317736942342z" style="fill:rgb(191,148,255); fill-opacity: 0.4"></path><path d="M305.59496550627654,81.73946358564748L315.1449031336572,84.29384722101025" style="fill:none;stroke:rgb(0,0,0);stroke-width:1;stroke-linecap:round"></path><path d="M345.418875447066,123.56740318269718L343.17858923366134,127.64044390258162L343.17858923366134,60.61621808930788zM349.01933543289505,129.20270609650993L351.25962164629976,125.12966537662545L351.25962164629976,58.105439563351695zM343.17858923366134,127.64044390258162L349.01933543289505,129.20270609650993L349.01933543289505,62.178480283236155z" style="fill:rgb(191,148,255); fill-opacity: 0.4"></path><path d="M315.6198409289271,82.1220860956902L314.66996533838727,83.84904488155581L320.7625135027046,85.79642583004717zM314.66996533838727,83.84904488155581L314.3764376083476,86.19070544505576L320.7625135027046,85.79642583004717z" style="fill:rgb(0,0,0)"></path><path d="M328.28854279660317,87.80946160239371L337.8384804239838,90.36384523775648" style="fill:none;stroke:rgb(0,0,0);stroke-width:1;stroke-linecap:round"></path><path d="M305.8724670656465,42.48766707757628L305.8724670656465,116.46744579541597L300.03172086641274,40.925404883648zM300.03172086641274,40.925404883648L300.03172086641274,114.90518360148768L297.7914346530081,44.99844560353246z" style="fill:rgb(191,148,255); fill-opacity: 0.4"></path><path d="M338.31341821925366,88.19208411243642L337.3635426287139,89.91904289830205L343.45609079303125,91.86642384679341zM337.3635426287139,89.91904289830205L337.07001489867423,92.260703461802L343.45609079303125,91.86642384679341z" style="fill:rgb(0,0,0)"></path><path d="M303.6321808522418,46.56070779746074L303.6321808522418,120.54048651530043L305.8724670656465,42.48766707757628zM297.7914346530081,44.99844560353246L297.7914346530081,118.97822432137214L303.6321808522418,46.56070779746074zM328.5660443559731,48.557665094322516L328.5660443559731,122.53744381216221L322.72529815673937,46.99540290039424zM322.72529815673937,46.99540290039424L322.72529815673937,120.97518161823392L320.48501194333465,51.06844362027869zM326.3257581425684,52.630705814206976L326.3257581425684,126.61048453204667L328.5660443559731,48.557665094322516zM320.48501194333465,51.06844362027869L320.48501194333465,125.04822233811838L326.3257581425684,52.630705814206976zM351.25962164629976,58.105439563351695L351.25962164629976,125.12966537662545L345.418875447066,56.54317736942342zM345.418875447066,56.54317736942342L345.418875447066,123.56740318269718L343.17858923366134,60.61621808930788zM349.01933543289505,62.178480283236155L349.01933543289505,129.20270609650993L351.25962164629976,58.105439563351695zM343.17858923366134,60.61621808930788L343.17858923366134,127.64044390258162L349.01933543289505,62.178480283236155z" style="fill:rgb(191,148,255); fill-opacity: 0.4"></path><path d="M305.8724670656465,42.48766707757629L300.03172086641274,40.92540488364801M300.03172086641274,40.92540488364801L297.7914346530081,44.99844560353246M305.8724670656465,42.48766707757629L303.6321808522418,46.56070779746075" style="fill:none;stroke:rgb(0,0,0);stroke-width:1;stroke-linecap:round"></path><path d="M303.6321808522418,46.56070779746074L305.8724670656465,42.48766707757628L300.03172086641274,40.925404883648zM297.7914346530081,44.99844560353246L303.6321808522418,46.56070779746074L300.03172086641274,40.925404883648z" style="fill:rgb(191,148,255); fill-opacity: 0.4"></path><path d="M297.7914346530081,44.99844560353246L303.6321808522418,46.56070779746075M328.5660443559731,48.557665094322516L322.72529815673937,46.995402900394225M322.72529815673937,46.995402900394225L320.48501194333465,51.068443620278686M328.5660443559731,48.557665094322516L326.3257581425684,52.630705814206976" style="fill:none;stroke:rgb(0,0,0);stroke-width:1;stroke-linecap:round"></path><path d="M326.3257581425684,52.630705814206976L328.5660443559731,48.557665094322516L322.72529815673937,46.99540290039424z" style="fill:rgb(191,148,255); fill-opacity: 0.4"></path><path d="M351.25962164629976,58.105439563351695L345.418875447066,56.54317736942341M345.418875447066,56.54317736942341L343.17858923366134,60.616218089307864" style="fill:none;stroke:rgb(0,0,0);stroke-width:1;stroke-linecap:round"></path><path d="M320.48501194333465,51.06844362027869L326.3257581425684,52.630705814206976L322.72529815673937,46.99540290039424z" style="fill:rgb(191,148,255); fill-opacity: 0.4"></path><path d="M320.48501194333465,51.068443620278686L326.3257581425684,52.630705814206976M351.25962164629976,58.105439563351695L349.01933543289505,62.178480283236155" style="fill:none;stroke:rgb(0,0,0);stroke-width:1;stroke-linecap:round"></path><path d="M349.01933543289505,62.178480283236155L351.25962164629976,58.105439563351695L345.418875447066,56.54317736942342zM343.17858923366134,60.61621808930788L349.01933543289505,62.178480283236155L345.418875447066,56.54317736942342z" style="fill:rgb(191,148,255); fill-opacity: 0.4"></path><path d="M343.17858923366134,60.616218089307864L349.01933543289505,62.178480283236155" style="fill:none;stroke:rgb(0,0,0);stroke-width:1;stroke-linecap:round"></path></svg>