<svg viewBox="-717 -373 1434 746" width="1434" height="746" style="background-color: rgb(255, 255, 255);" xmlns="http://www.w3.org/2000/svg"><path d="M-432.134121324637,-116.75184412871627L-461.01889715069046,-124.47784209436271M-461.01889715069046,-179.9110174612908L-461.01889715069046,-124.47784209436271M-461.01889715069046,-124.47784209436271L-488.71662739485123,-74.12089106827432M-432.134121324637,-172.18501949564438L-432.134121324637,-116.75184412871627M-432.134121324637,-116.75184412871627L-459.8318515687978,-66.39489310262789" style="fill:none;stroke:rgb(0,0,0);stroke-width:1;stroke-linecap:round"></path><path d="M-488.7166273948513,-74.12089106827432L-461.0188971506905,-124.47784209436271L-432.1341213246371,-116.7518441287163zM-432.1341213246371,-116.7518441287163L-461.0188971506905,-124.47784209436271L-461.01889715069046,-179.9110174612908z" style="fill:rgb(191,148,255); fill-opacity: 0.4"></path><path d="M-235.8782307707415,-64.23629510515849L-380.3021099010086,-102.86628493339065M-380.3021099010086,-157.26719099111972L-380.3021099010086,-102.86628493339065M-380.3021099010086,-102.86628493339065L-407.4840566513272,-53.4470744337106" style="fill:none;stroke:rgb(0,0,0);stroke-width:1;stroke-linecap:round"></path><path d="M-459.8318515687978,-66.39489310262788L-488.7166273948513,-74.12089106827432L-432.1341213246371,-116.7518441287163zM-432.1341213246371,-172.18501949564438L-432.1341213246371,-116.7518441287163L-461.01889715069046,-179.9110174612908zM-459.8318515687978,-66.39489310262788L-432.1341213246371,-116.7518441287163L-432.1341213246371,-172.18501949564438z" style="fill:rgb(191,148,255); fill-opacity: 0.4"></path><path d="M-453.8081496175985,-85.0711206893126L-482.6929254436519,-92.79711865495902M-482.6929254436519,-94.79644782953008L-482.6929254436519,-92.79711865495902M-482.6929254436519,-92.79711865495902L-483.69190989258516,-90.98087557195912" style="fill:none;stroke:rgb(0,0,0);stroke-width:1;stroke-linecap:round"></path><path d="M-501.7200019021139,-104.46818913443651h39.05313744522776v19.526568722613767h-39.05313744522776z" style="fill:rgb(255,255,255)"></path><path d="M-483.69190989258516,-92.98020474653016L-483.69190989258516,-90.98087557195912M-483.69190989258516,-90.98087557195912L-454.8071340665317,-83.25487760631268" style="fill:none;stroke:rgb(0,0,0);stroke-width:1;stroke-linecap:round"></path><path d="M-482.692925443652,-92.79711865495904L-483.69190989258516,-90.98087557195912L-483.69190989258516,-92.98020474653018zM-482.692925443652,-94.79644782953011L-482.692925443652,-92.79711865495904L-483.69190989258516,-92.98020474653018z" style="fill:rgb(0,0,0); fill-opacity: 0.4"></path><path d="M-453.8081496175985,-87.07044986388365L-482.6929254436519,-94.79644782953008M-482.6929254436519,-94.79644782953008L-483.69190989258516,-92.98020474653016" style="fill:none;stroke:rgb(0,0,0);stroke-width:1;stroke-linecap:round"></path><path d="M-483.69190989258516,-90.98087557195912L-482.692925443652,-92.79711865495904L-453.80814961759853,-85.0711206893126zM-453.80814961759853,-85.0711206893126L-482.692925443652,-92.79711865495904L-482.692925443652,-94.79644782953011z" style="fill:rgb(0,0,0); fill-opacity: 0.4"></path><path d="M-488.71662739485123,-129.55406643520243L-488.71662739485123,-74.12089106827432M-488.71662739485123,-74.12089106827432L-459.8318515687978,-66.39489310262789M-483.69190989258516,-92.98020474653016L-454.8071340665317,-85.25420678088373" style="fill:none;stroke:rgb(0,0,0);stroke-width:1;stroke-linecap:round"></path><path d="M-461.0188971506905,-124.47784209436271L-488.7166273948513,-74.12089106827432L-488.71662739485123,-129.55406643520243zM-461.01889715069046,-179.9110174612908L-461.0188971506905,-124.47784209436271L-488.71662739485123,-129.55406643520243zM-407.48405665132714,-53.44707443371058L-380.3021099010086,-102.86628493339065L-235.87823077074145,-64.23629510515849z" style="fill:rgb(191,148,255); fill-opacity: 0.4"></path><path d="M-483.69190989258516,-92.98020474653018L-483.69190989258516,-90.98087557195912L-454.8071340665317,-85.25420678088373zM-483.69190989258516,-92.98020474653018L-454.8071340665317,-85.25420678088373L-482.692925443652,-94.79644782953011z" style="fill:rgb(0,0,0); fill-opacity: 0.4"></path><path d="M-432.134121324637,-172.18501949564438L-461.01889715069046,-179.9110174612908M-461.01889715069046,-179.9110174612908L-488.71662739485123,-129.55406643520243" style="fill:none;stroke:rgb(0,0,0);stroke-width:1;stroke-linecap:round"></path><path d="M-235.87823077074145,-64.23629510515849L-380.3021099010086,-102.86628493339065L-380.3021099010086,-157.26719099111972z" style="fill:rgb(191,148,255); fill-opacity: 0.4"></path><path d="M-454.8071340665317,-83.25487760631268L-483.69190989258516,-90.98087557195912L-453.80814961759853,-85.0711206893126zM-453.80814961759853,-87.07044986388365L-453.80814961759853,-85.0711206893126L-482.692925443652,-94.79644782953011z" style="fill:rgb(0,0,0); fill-opacity: 0.4"></path><path d="M-495.79877706425043,-72.39003207696298h39.05313744522776v19.52656872261384h-39.05313744522776zM-502.7189863510471,-108.64993357514977h39.05313744522776v19.526568722613767h-39.05313744522776z" style="fill:rgb(255,255,255)"></path><path d="M-483.69190989258516,-90.98087557195912L-454.8071340665317,-83.25487760631268L-454.8071340665317,-85.25420678088373zM-454.8071340665317,-85.25420678088373L-453.80814961759853,-87.07044986388365L-482.692925443652,-94.79644782953011z" style="fill:rgb(0,0,0); fill-opacity: 0.4"></path><path d="M-453.8081496175985,-87.07044986388365L-453.8081496175985,-85.0711206893126M-453.8081496175985,-85.0711206893126L-454.8071340665317,-83.25487760631268" style="fill:none;stroke:rgb(0,0,0);stroke-width:1;stroke-linecap:round"></path><path d="M-454.8071340665317,-83.25487760631268L-453.80814961759853,-85.0711206893126L-453.80814961759853,-87.07044986388365z" style="fill:rgb(0,0,0); fill-opacity: 0.4"></path><path d="M-454.8071340665317,-85.25420678088373L-454.8071340665317,-83.25487760631268" style="fill:none;stroke:rgb(0,0,0);stroke-width:1;stroke-linecap:round"></path><path d="M-454.3076418817504,-85.16266374571308L-454.3076418817504,-85.16266374571308L-454.3076418817504,-85.16266374571308zM-454.3076418817504,-85.16266374571308L-454.3076418817504,-85.16266374571308L-454.3076418817504,-85.16266374571308z" style="fill:rgb(255,20,20); fill-opacity: 0.4"></path><path d="M-453.8081496175985,-87.07044986388365L-454.8071340665317,-85.25420678088373" style="fill:none;stroke:rgb(0,0,0);stroke-width:1;stroke-linecap:round"></path><path d="M-454.8071340665317,-85.25420678088373L-454.8071340665317,-83.25487760631268L-453.80814961759853,-87.07044986388365z" style="fill:rgb(0,0,0); fill-opacity: 0.4"></path><path d="M-459.8318515687978,-121.82806846955597L-459.8318515687978,-66.39489310262789M-432.134121324637,-172.18501949564438L-459.8318515687978,-121.82806846955597" style="fill:none;stroke:rgb(0,0,0);stroke-width:1;stroke-linecap:round"></path><path d="M-454.3076418817504,-85.16266374571308L-454.3076418817504,-85.16266374571308L-402.0627177319641,-71.86535447212904zM-454.3076418817504,-85.16266374571308L-454.3076418817504,-85.16266374571308L-402.0627177319641,-71.86535447212904zM-454.3076418817504,-85.16266374571308L-454.3076418817504,-85.16266374571308L-402.0627177319641,-71.86535447212904zM-454.3076418817504,-85.16266374571308L-454.3076418817504,-85.16266374571308L-402.0627177319641,-71.86535447212904z" style="fill:rgb(255,20,20); fill-opacity: 0.4"></path><path d="M-235.8782307707415,-118.63720116288756L-235.8782307707415,-64.23629510515849M-235.8782307707415,-64.23629510515849L-263.0601775210601,-14.81708460547845M-256.16343314902514,-31.19216887966803L-400.5873122792922,-69.82215870790019M-400.5873122792922,-75.82014623161335L-400.5873122792922,-69.82215870790019M-400.5873122792922,-69.82215870790019L-403.5842656260919,-64.37342945890043" style="fill:none;stroke:rgb(0,0,0);stroke-width:1;stroke-linecap:round"></path><path d="M-420.6133730279463,-78.67732147463269h39.05313744522776v19.52656872261384h-39.05313744522776z" style="fill:rgb(255,255,255)"></path><path d="M-403.5842656260919,-70.3714169826136L-403.5842656260919,-64.37342945890043M-403.5842656260919,-64.37342945890043L-259.16038649582487,-25.743439630668284" style="fill:none;stroke:rgb(0,0,0);stroke-width:1;stroke-linecap:round"></path><path d="M-400.5873122792922,-69.82215870790016L-403.5842656260919,-64.37342945890042L-403.5842656260919,-70.37141698261358zM-400.5873122792922,-75.82014623161334L-400.5873122792922,-69.82215870790016L-403.5842656260919,-70.37141698261358z" style="fill:rgb(0,0,0); fill-opacity: 0.4"></path><path d="M-256.16343314902514,-37.19015640338121L-400.5873122792922,-75.82014623161335M-400.5873122792922,-75.82014623161335L-403.5842656260919,-70.3714169826136M-407.48405665132714,-107.84798049143966L-407.4840566513272,-53.4470744337106M-407.4840566513272,-53.4470744337106L-263.0601775210601,-14.81708460547845" style="fill:none;stroke:rgb(0,0,0);stroke-width:1;stroke-linecap:round"></path><path d="M-380.3021099010086,-102.86628493339065L-407.48405665132714,-53.44707443371058L-407.48405665132714,-107.84798049143966zM-488.7166273948513,-74.12089106827432L-459.8318515687978,-66.39489310262788L-459.8318515687978,-121.82806846955597zM-380.3021099010086,-157.26719099111972L-380.3021099010086,-102.86628493339065L-407.48405665132714,-107.84798049143966z" style="fill:rgb(191,148,255); fill-opacity: 0.4"></path><path d="M-235.8782307707415,-118.63720116288756L-380.3021099010086,-157.26719099111972M-380.3021099010086,-157.26719099111972L-407.48405665132714,-107.84798049143966M-403.5842656260919,-70.3714169826136L-259.1603864958248,-31.74142715438146" style="fill:none;stroke:rgb(0,0,0);stroke-width:1;stroke-linecap:round"></path><path d="M-459.8318515687978,-121.82806846955597L-432.1341213246371,-172.18501949564438L-461.01889715069046,-179.9110174612908zM-459.8318515687978,-121.82806846955597L-459.8318515687978,-66.39489310262788L-432.1341213246371,-172.18501949564438z" style="fill:rgb(191,148,255); fill-opacity: 0.4"></path><path d="M-423.11083415027935,-83.13369505270266h39.05313744522776v19.52656872261384h-39.05313744522776z" style="fill:rgb(255,255,255)"></path><path d="M-403.5842656260919,-64.37342945890042L-400.5873122792922,-69.82215870790016L-256.16343314902514,-31.192168879668017zM-256.16343314902514,-31.192168879668017L-400.5873122792922,-69.82215870790016L-400.5873122792922,-75.82014623161334z" style="fill:rgb(0,0,0); fill-opacity: 0.4"></path><path d="M-519.0536348978243,-108.24195747017845h39.05313744522776v19.526568722613767h-39.05313744522776zM-502.2078164669986,-172.5837372940527h39.05313744522776v19.526568722613767h-39.05313744522776z" style="fill:rgb(255,255,255)"></path><path d="M-263.06017752106004,-14.817084605478444L-407.48405665132714,-53.44707443371058L-235.87823077074145,-64.23629510515849zM-235.87823077074145,-118.63720116288756L-235.87823077074145,-64.23629510515849L-380.3021099010086,-157.26719099111972z" style="fill:rgb(191,148,255); fill-opacity: 0.4"></path><path d="M-403.5842656260919,-70.37141698261358L-403.5842656260919,-64.37342945890042L-259.1603864958248,-31.741427154381444zM-403.5842656260919,-70.37141698261358L-259.1603864958248,-31.741427154381444L-400.5873122792922,-75.82014623161334z" style="fill:rgb(0,0,0); fill-opacity: 0.4"></path><path d="M-42.13422165308215,-12.181104166748861L-186.55810078334923,-50.81109399498101M-186.55810078334923,-94.12536497932446L-186.55810078334923,-50.81109399498101M-186.55810078334923,-50.81109399498101L-208.20050148483568,-11.463273700518643" style="fill:none;stroke:rgb(0,0,0);stroke-width:1;stroke-linecap:round"></path><path d="M-488.71662739485123,-129.55406643520243L-488.7166273948513,-74.12089106827432L-459.8318515687978,-121.82806846955597zM-488.71662739485123,-129.55406643520243L-459.8318515687978,-121.82806846955597L-461.01889715069046,-179.9110174612908z" style="fill:rgb(191,148,255); fill-opacity: 0.4"></path><path d="M-356.79665449964637,-36.264220156491426h39.05313744522776v19.52656872261384h-39.05313744522776z" style="fill:rgb(255,255,255)"></path><path d="M-259.1603864958248,-25.743439630668274L-403.5842656260919,-64.37342945890042L-256.16343314902514,-31.192168879668017zM-256.16343314902514,-37.190156403381195L-256.16343314902514,-31.192168879668017L-400.5873122792922,-75.82014623161334z" style="fill:rgb(0,0,0); fill-opacity: 0.4"></path><path d="M-263.06017752106004,-14.817084605478444L-235.87823077074145,-64.23629510515849L-235.87823077074145,-118.63720116288756z" style="fill:rgb(191,148,255); fill-opacity: 0.4"></path><path d="M-403.5842656260919,-64.37342945890042L-259.1603864958248,-25.743439630668274L-259.1603864958248,-31.741427154381444zM-259.1603864958248,-31.741427154381444L-256.16343314902514,-37.190156403381195L-400.5873122792922,-75.82014623161334z" style="fill:rgb(0,0,0); fill-opacity: 0.4"></path><path d="M-437.8210638265858,-87.05200644576418h39.05313744522776v19.52656872261384h-39.05313744522776z" style="fill:rgb(255,255,255)"></path><path d="M-256.16343314902514,-37.19015640338121L-256.16343314902514,-31.19216887966803M-256.16343314902514,-31.19216887966803L-259.16038649582487,-25.743439630668284M-256.16342377809644,-37.19015392126368L-256.16342377809644,-31.19216639755051M-256.16342377809644,-31.19216639755051L-259.160377601249,-25.743436282498568M-256.16342377809644,-31.19216639755051L-203.90236438864594,-24.71985615221134" style="fill:none;stroke:rgb(0,0,0);stroke-width:1;stroke-linecap:round"></path><path d="M-421.2331373116545,-150.4087807064497h39.05313744522776v19.526568722613767h-39.05313744522776z" style="fill:rgb(255,255,255)"></path><path d="M-488.71662739485123,-129.55406643520243L-459.8318515687978,-121.82806846955597" style="fill:none;stroke:rgb(0,0,0);stroke-width:1;stroke-linecap:round"></path><path d="M-256.1634333474517,-37.19015645645562L-256.1634333474517,-31.19216893274244L-259.1603866942514,-25.743439683742697z" style="fill:rgb(255,20,20); fill-opacity: 0.4"></path><path d="M-259.1603864958248,-25.743439630668274L-256.16343314902514,-31.192168879668017L-256.16343314902514,-37.190156403381195z" style="fill:rgb(0,0,0); fill-opacity: 0.4"></path><path d="M-259.1603864958248,-31.74142715438146L-259.16038649582487,-25.743439630668284M-259.160377601249,-25.743436282498568L-259.160377601249,-31.741423806211742M-259.160377601249,-25.743436282498568L-203.90236438864594,-24.71985615221134M-256.16343314902514,-37.19015640338121L-259.1603864958248,-31.74142715438146M-256.16342377809644,-37.19015392126368L-259.160377601249,-31.741423806211742M-256.16342377809644,-37.19015392126368L-203.90236438864594,-24.71985615221134" style="fill:none;stroke:rgb(0,0,0);stroke-width:1;stroke-linecap:round"></path><path d="M-256.1634333474517,-37.19015645645562L-259.1603866942514,-25.743439683742697L-259.1603866942514,-31.741427207455867z" style="fill:rgb(255,20,20); fill-opacity: 0.4"></path><path d="M-259.1603864958248,-31.741427154381444L-259.1603864958248,-25.743439630668274L-256.16343314902514,-37.190156403381195z" style="fill:rgb(0,0,0); fill-opacity: 0.4"></path><path d="M-259.1603866942514,-25.743439683742697L-256.1634333474517,-31.19216893274244L-203.9023737730442,-24.719858062318867zM-256.1634333474517,-31.19216893274244L-256.1634333474517,-37.19015645645562L-203.9023737730442,-24.719858062318867z" style="fill:rgb(255,20,20); fill-opacity: 0.4"></path><path d="M-263.06017752106004,-69.21799066320752L-263.0601775210601,-14.81708460547845" style="fill:none;stroke:rgb(0,0,0);stroke-width:1;stroke-linecap:round"></path><path d="M-208.20050148483568,-11.463273700518641L-186.5581007833492,-50.811093994981L-42.134221653082136,-12.181104166748861zM-42.134221653082136,-12.181104166748861L-186.5581007833492,-50.811093994981L-186.5581007833492,-94.12536497932446z" style="fill:rgb(191,148,255); fill-opacity: 0.4"></path><path d="M-235.8782307707415,-118.63720116288756L-263.06017752106004,-69.21799066320752M-259.160377601249,-31.741423806211742L-203.90236438864594,-24.71985615221134" style="fill:none;stroke:rgb(0,0,0);stroke-width:1;stroke-linecap:round"></path><path d="M-259.1603866942514,-31.741427207455867L-259.1603866942514,-25.743439683742697L-203.9023737730442,-24.719858062318867zM-256.1634333474517,-37.19015645645562L-259.1603866942514,-31.741427207455867L-203.9023737730442,-24.719858062318867z" style="fill:rgb(255,20,20); fill-opacity: 0.4"></path><path d="M-407.48405665132714,-53.44707443371058L-263.06017752106004,-14.817084605478444L-263.06017752106004,-69.2179906632075zM-263.06017752106004,-69.2179906632075L-235.87823077074145,-118.63720116288756L-380.3021099010086,-157.26719099111972z" style="fill:rgb(191,148,255); fill-opacity: 0.4"></path><path d="M-47.117525273267574,-28.02849716081899L-191.54140440353467,-66.65848698905114M-191.54140440353467,-70.65714533819325L-191.54140440353467,-66.65848698905114M-191.54140440353467,-66.65848698905114L-193.5393733014011,-63.026000823051305" style="fill:none;stroke:rgb(0,0,0);stroke-width:1;stroke-linecap:round"></path><path d="M-211.06797292772197,-76.42177129728361h39.05313744522776v19.52656872261384h-39.05313744522776z" style="fill:rgb(255,255,255)"></path><path d="M-407.48405665132714,-107.84798049143966L-407.48405665132714,-53.44707443371058L-263.06017752106004,-69.2179906632075zM-407.48405665132714,-107.84798049143966L-263.06017752106004,-69.2179906632075L-380.3021099010086,-157.26719099111972z" style="fill:rgb(191,148,255); fill-opacity: 0.4"></path><path d="M-193.5393733014011,-67.02465917219342L-193.5393733014011,-63.026000823051305M-193.5393733014011,-63.026000823051305L-49.115494171134024,-24.39601099481916" style="fill:none;stroke:rgb(0,0,0);stroke-width:1;stroke-linecap:round"></path><path d="M-191.5414044035346,-66.65848698905113L-193.53937330140107,-63.0260008230513L-193.53937330140107,-67.02465917219341zM-191.5414044035346,-70.65714533819325L-191.5414044035346,-66.65848698905113L-193.53937330140107,-67.02465917219341z" style="fill:rgb(0,0,0); fill-opacity: 0.4"></path><path d="M-47.117525273267574,-32.027155509961105L-191.54140440353467,-70.65714533819325M-191.54140440353467,-70.65714533819325L-193.5393733014011,-67.02465917219342M-407.48405665132714,-107.84798049143966L-263.06017752106004,-69.21799066320752M-42.13422165308215,-55.49537515109231L-42.13422165308215,-12.181104166748861M-42.13422165308215,-12.181104166748861L-63.77662235456859,27.166716127713503M-208.20050148483568,-54.777544684862086L-208.20050148483568,-11.463273700518643M-208.20050148483568,-11.463273700518643L-63.77662235456859,27.166716127713503" style="fill:none;stroke:rgb(0,0,0);stroke-width:1;stroke-linecap:round"></path><path d="M-186.5581007833492,-50.811093994981L-208.20050148483568,-11.463273700518641L-208.20050148483568,-54.777544684862086z" style="fill:rgb(191,148,255); fill-opacity: 0.4"></path><path d="M-193.5393733014011,-67.02465917219342L-49.115494171134024,-28.394669343961276" style="fill:none;stroke:rgb(0,0,0);stroke-width:1;stroke-linecap:round"></path><path d="M-186.5581007833492,-94.12536497932446L-186.5581007833492,-50.811093994981L-208.20050148483568,-54.777544684862086z" style="fill:rgb(191,148,255); fill-opacity: 0.4"></path><path d="M-42.13422165308215,-55.49537515109231L-186.55810078334923,-94.12536497932446M-186.55810078334923,-94.12536497932446L-208.20050148483568,-54.777544684862086" style="fill:none;stroke:rgb(0,0,0);stroke-width:1;stroke-linecap:round"></path><path d="M-263.06017752106004,-69.2179906632075L-263.06017752106004,-14.817084605478444L-235.87823077074145,-118.63720116288756z" style="fill:rgb(191,148,255); fill-opacity: 0.4"></path><path d="M-213.06594182558842,-80.78660182956803h39.05313744522776v19.52656872261384h-39.05313744522776z" style="fill:rgb(255,255,255)"></path><path d="M-193.53937330140107,-63.0260008230513L-191.5414044035346,-66.65848698905113L-47.117525273267546,-28.028497160818986zM-47.117525273267546,-28.028497160818986L-191.5414044035346,-66.65848698905113L-191.5414044035346,-70.65714533819325zM-193.53937330140107,-67.02465917219341L-193.53937330140107,-63.0260008230513L-49.11549417113401,-28.39466934396127zM-193.53937330140107,-67.02465917219341L-49.11549417113401,-28.39466934396127L-191.5414044035346,-70.65714533819325z" style="fill:rgb(0,0,0); fill-opacity: 0.4"></path><path d="M-63.776622354568566,27.166716127713507L-208.20050148483568,-11.463273700518641L-42.134221653082136,-12.181104166748861zM-42.134221653082136,-55.495375151092304L-42.134221653082136,-12.181104166748861L-186.5581007833492,-94.12536497932446z" style="fill:rgb(191,148,255); fill-opacity: 0.4"></path><path d="M182.69251367298466,48.002907966501546L9.383858716664157,1.6469201726229636M9.383858716664157,-39.37850314681089L9.383858716664157,1.6469201726229636M9.383858716664157,1.6469201726229636L-11.114896780068847,38.915491190725206" style="fill:none;stroke:rgb(0,0,0);stroke-width:1;stroke-linecap:round"></path><path d="M-157.5130993407657,5.719580605769913h39.05313744522776v19.52656872261384h-39.05313744522776z" style="fill:rgb(255,255,255)"></path><path d="M-49.11549417113401,-24.39601099481915L-193.53937330140107,-63.0260008230513L-47.117525273267546,-28.028497160818986zM-47.117525273267546,-32.027155509961105L-47.117525273267546,-28.028497160818986L-191.5414044035346,-70.65714533819325z" style="fill:rgb(0,0,0); fill-opacity: 0.4"></path><path d="M-238.53750866770517,-39.52488816204216h39.05313744522776v19.52656872261384h-39.05313744522776z" style="fill:rgb(255,255,255)"></path><path d="M-193.53937330140107,-63.0260008230513L-49.11549417113401,-24.39601099481915L-49.11549417113401,-28.39466934396127zM-49.11549417113401,-28.39466934396127L-47.117525273267546,-32.027155509961105L-191.5414044035346,-70.65714533819325z" style="fill:rgb(0,0,0); fill-opacity: 0.4"></path><path d="M-224.71935516957902,-92.30264981249543h39.05313744522776v19.52656872261384h-39.05313744522776z" style="fill:rgb(255,255,255)"></path><path d="M-63.776622354568566,27.166716127713507L-42.134221653082136,-12.181104166748861L-42.134221653082136,-55.495375151092304z" style="fill:rgb(191,148,255); fill-opacity: 0.4"></path><path d="M-47.117525517964204,-32.02715556124052L-47.117525517964204,-28.02849745043702M-47.117525517964204,-28.02849745043702L-49.11549441583067,-24.396011284437193M-47.117525517964204,-28.02849745043702L3.7176921207433407,-13.5364643809946M-47.117525273267574,-32.027155509961105L-47.117525273267574,-28.02849716081899M-47.117525273267574,-28.02849716081899L-49.115494171134024,-24.39601099481916" style="fill:none;stroke:rgb(0,0,0);stroke-width:1;stroke-linecap:round"></path><path d="M-47.117525471694066,-32.02715556303553L-47.117525471694066,-28.02849721389341L-49.11549436956053,-24.396011047893573z" style="fill:rgb(255,20,20); fill-opacity: 0.4"></path><path d="M-49.11549417113401,-24.39601099481915L-47.117525273267546,-28.028497160818986L-47.117525273267546,-32.027155509961105z" style="fill:rgb(0,0,0); fill-opacity: 0.4"></path><path d="M-49.11549441583067,-24.396011284437193L-49.11549441583067,-28.394669395240694M-49.11549441583067,-24.396011284437193L3.7176921207433407,-13.5364643809946M-49.115494171134024,-28.394669343961276L-49.115494171134024,-24.39601099481916M-47.117525517964204,-32.02715556124052L-49.11549441583067,-28.394669395240694M-47.117525517964204,-32.02715556124052L3.7176921207433407,-13.5364643809946M-47.117525273267574,-32.027155509961105L-49.115494171134024,-28.394669343961276" style="fill:none;stroke:rgb(0,0,0);stroke-width:1;stroke-linecap:round"></path><path d="M-47.117525471694066,-32.02715556303553L-49.11549436956053,-24.396011047893573L-49.11549436956053,-28.394669397035692z" style="fill:rgb(255,20,20); fill-opacity: 0.4"></path><path d="M-49.11549417113401,-28.39466934396127L-49.11549417113401,-24.39601099481915L-47.117525273267546,-32.027155509961105z" style="fill:rgb(0,0,0); fill-opacity: 0.4"></path><path d="M-63.77662235456859,-16.14755485662994L-63.77662235456859,27.166716127713503" style="fill:none;stroke:rgb(0,0,0);stroke-width:1;stroke-linecap:round"></path><path d="M-49.11549436956053,-24.396011047893573L-47.117525471694066,-28.02849721389341L3.717692013400451,-13.536464013595795zM-47.117525471694066,-28.02849721389341L-47.117525471694066,-32.02715556303553L3.717692013400451,-13.536464013595795z" style="fill:rgb(255,20,20); fill-opacity: 0.4"></path><path d="M-49.11549441583067,-28.394669395240694L3.7176921207433407,-13.5364643809946" style="fill:none;stroke:rgb(0,0,0);stroke-width:1;stroke-linecap:round"></path><path d="M-208.20050148483568,-11.463273700518641L-63.776622354568566,27.166716127713507L-63.776622354568566,-16.14755485662994zM-208.20050148483568,-54.777544684862086L-208.20050148483568,-11.463273700518641L-63.776622354568566,-16.14755485662994z" style="fill:rgb(191,148,255); fill-opacity: 0.4"></path><path d="M-42.13422165308215,-55.49537515109231L-63.77662235456859,-16.14755485662994" style="fill:none;stroke:rgb(0,0,0);stroke-width:1;stroke-linecap:round"></path><path d="M-63.776622354568566,-16.14755485662994L-42.134221653082136,-55.495375151092304L-186.5581007833492,-94.12536497932446zM-208.20050148483568,-54.777544684862086L-63.776622354568566,-16.14755485662994L-186.5581007833492,-94.12536497932446z" style="fill:rgb(191,148,255); fill-opacity: 0.4"></path><path d="M-208.20050148483568,-54.777544684862086L-63.77662235456859,-16.14755485662994" style="fill:none;stroke:rgb(0,0,0);stroke-width:1;stroke-linecap:round"></path><path d="M-49.11549436956053,-28.394669397035692L-49.11549436956053,-24.396011047893573L3.717692013400451,-13.536464013595795zM-47.117525471694066,-32.02715556303553L-49.11549436956053,-28.394669397035692L3.717692013400451,-13.536464013595795z" style="fill:rgb(255,20,20); fill-opacity: 0.4"></path><path d="M-11.114896780068852,38.915491190725206L9.38385871666416,1.646920172622965L182.6925136729847,48.002907966501546zM182.6925136729847,48.002907966501546L9.38385871666416,1.646920172622965L9.383858716664163,-39.37850314681089z" style="fill:rgb(191,148,255); fill-opacity: 0.4"></path><path d="M-11.114896780068847,-2.1099321287086523L-11.114896780068847,38.915491190725206M-11.114896780068847,38.915491190725206L162.19375817625166,85.27147898460379" style="fill:none;stroke:rgb(0,0,0);stroke-width:1;stroke-linecap:round"></path><path d="M-63.776622354568566,-16.14755485662994L-63.776622354568566,27.166716127713507L-42.134221653082136,-55.495375151092304zM9.38385871666416,1.646920172622965L-11.114896780068852,38.915491190725206L-11.11489678006885,-2.1099321287086483zM9.383858716664163,-39.37850314681089L9.38385871666416,1.646920172622965L-11.11489678006885,-2.1099321287086483z" style="fill:rgb(191,148,255); fill-opacity: 0.4"></path><path d="M182.69251367298466,6.977484647067684L9.383858716664157,-39.37850314681089M9.383858716664157,-39.37850314681089L-11.114896780068847,-2.1099321287086523M169.69897547251978,55.112390971306255L-3.6096794838007287,8.756403177427677M-3.609679483800719,2.7584156537145024L-3.6096794838007287,8.756403177427677M-3.6096794838007287,8.756403177427677L-6.606632830600421,14.205132426427426" style="fill:none;stroke:rgb(0,0,0);stroke-width:1;stroke-linecap:round"></path><path d="M-23.63574019276935,-0.09875957868996998h39.05313744522768v19.52656872261383h-39.05313744522768z" style="fill:rgb(255,255,255)"></path><path d="M-6.606632830600411,8.207144902714251L-6.606632830600421,14.205132426427426M-6.606632830600421,14.205132426427426L166.70202212572008,60.561120220305995" style="fill:none;stroke:rgb(0,0,0);stroke-width:1;stroke-linecap:round"></path><path d="M-3.6096794838007256,8.756403177427675L-6.606632830600417,14.205132426427424L-6.606632830600417,8.20714490271425zM-3.609679483800725,2.758415653714502L-3.6096794838007256,8.756403177427675L-6.606632830600417,8.20714490271425z" style="fill:rgb(0,0,0); fill-opacity: 0.4"></path><path d="M169.6989754725198,49.11440344759308L-3.609679483800719,2.7584156537145024M-3.609679483800719,2.7584156537145024L-6.606632830600411,8.207144902714251M182.69251367298466,6.977484647067684L182.69251367298466,48.002907966501546M182.69251367298466,48.002907966501546L162.19375817625166,85.27147898460379M-6.606632830600411,8.207144902714251L166.70202212572008,54.563132696592824" style="fill:none;stroke:rgb(0,0,0);stroke-width:1;stroke-linecap:round"></path><path d="M-26.133201315102426,-4.555133156759939h39.05313744522768v19.52656872261383h-39.05313744522768z" style="fill:rgb(255,255,255)"></path><path d="M162.19375817625163,85.27147898460377L-11.114896780068852,38.915491190725206L182.6925136729847,48.002907966501546z" style="fill:rgb(191,148,255); fill-opacity: 0.4"></path><path d="M-6.606632830600417,14.205132426427424L-3.6096794838007256,8.756403177427675L169.69897547251978,55.112390971306255zM169.69897547251978,55.112390971306255L-3.6096794838007256,8.756403177427675L-3.609679483800725,2.758415653714502z" style="fill:rgb(0,0,0); fill-opacity: 0.4"></path><path d="M182.6925136729847,6.977484647067684L182.6925136729847,48.002907966501546L9.383858716664163,-39.37850314681089z" style="fill:rgb(191,148,255); fill-opacity: 0.4"></path><path d="M-41.45190445592468,11.998301540716135h39.05313744522766v19.52656872261384h-39.05313744522766zM54.0148927443562,59.961346514350424h39.05313744522763v19.52656872261384h-39.05313744522763zM-28.205573027503558,-38.59541367361572h39.05313744522768v19.52656872261384h-39.05313744522768z" style="fill:rgb(255,255,255)"></path><path d="M-6.606632830600417,8.20714490271425L-6.606632830600417,14.205132426427424L166.70202212572008,54.563132696592824zM-6.606632830600417,8.20714490271425L166.70202212572008,54.563132696592824L-3.609679483800725,2.758415653714502z" style="fill:rgb(0,0,0); fill-opacity: 0.4"></path><path d="M162.19375817625163,85.27147898460377L182.6925136729847,48.002907966501546L182.6925136729847,6.977484647067684z" style="fill:rgb(191,148,255); fill-opacity: 0.4"></path><path d="M405.00145328419376,107.72547810169243L231.69279832787328,61.36949030781384M231.69279832787328,32.71095411497781L231.69279832787328,61.36949030781384M231.69279832787328,61.36949030781384L217.37327938623847,87.403656562757" style="fill:none;stroke:rgb(0,0,0);stroke-width:1;stroke-linecap:round"></path><path d="M166.70202212572008,60.56112022030601L-6.606632830600417,14.205132426427424L169.69897547251978,55.112390971306255zM169.69897547251978,49.114403447593084L169.69897547251978,55.112390971306255L-3.609679483800725,2.758415653714502z" style="fill:rgb(0,0,0); fill-opacity: 0.4"></path><path d="M-11.114896780068847,-2.1099321287086523L162.19375817625166,44.246055665169926" style="fill:none;stroke:rgb(0,0,0);stroke-width:1;stroke-linecap:round"></path><path d="M-6.606632830600417,14.205132426427424L166.70202212572008,60.56112022030601L166.70202212572008,54.563132696592824zM166.70202212572008,54.563132696592824L169.69897547251978,49.114403447593084L-3.609679483800725,2.758415653714502z" style="fill:rgb(0,0,0); fill-opacity: 0.4"></path><path d="M-11.11489678006885,-2.1099321287086483L-11.114896780068852,38.915491190725206L162.19375817625163,44.246055665169926zM-11.11489678006885,-2.1099321287086483L162.19375817625163,44.246055665169926L9.383858716664163,-39.37850314681089zM-11.114896780068852,38.915491190725206L162.19375817625163,85.27147898460377L162.19375817625163,44.246055665169926zM162.19375817625163,44.246055665169926L182.6925136729847,6.977484647067684L9.383858716664163,-39.37850314681089z" style="fill:rgb(191,148,255); fill-opacity: 0.4"></path><path d="M162.19375817625166,44.246055665169926L162.19375817625166,85.27147898460379M182.69251367298466,6.977484647067684L162.19375817625166,44.246055665169926M169.6989656004752,49.11440088885877L169.6989656004752,55.11238829340264M169.6989656004752,55.11238829340264L166.7020122536755,60.56111754240239M169.6989656004752,55.11238829340264L221.56931200047967,66.14401251456886M169.6989754725198,49.11440344759308L169.69897547251978,55.112390971306255M169.69897547251978,55.112390971306255L166.70202212572008,60.561120220305995M401.55060744219725,103.86696275897914L228.2419524858768,57.51097496510057M228.2419524858768,53.51231661595845L228.2419524858768,57.51097496510057M228.2419524858768,57.51097496510057L226.24398358801034,61.143461131100395" style="fill:none;stroke:rgb(0,0,0);stroke-width:1;stroke-linecap:round"></path><path d="M208.7153840013747,47.747690667482956h39.05313744522776v19.52656872261384h-39.05313744522776z" style="fill:rgb(255,255,255)"></path><path d="M169.69897523440792,49.11440338390377L169.69897523440792,55.11239090761694L166.70202188760825,60.56112015661668z" style="fill:rgb(255,20,20); fill-opacity: 0.4"></path><path d="M166.70202212572008,60.56112022030601L169.69897547251978,55.112390971306255L169.69897547251978,49.114403447593084z" style="fill:rgb(0,0,0); fill-opacity: 0.4"></path><path d="M166.7020122536755,60.56111754240239L166.7020122536755,54.56313013785852M166.7020122536755,60.56111754240239L221.56931200047967,66.14401251456886M166.70202212572008,54.563132696592824L166.70202212572008,60.561120220305995M226.24398358801034,57.14480278195828L226.24398358801034,61.143461131100395M226.24398358801034,61.143461131100395L399.5526385443308,107.49944892497896M169.6989656004752,49.11440088885877L166.7020122536755,54.56313013785852M169.6989656004752,49.11440088885877L221.56931200047967,66.14401251456886M169.6989754725198,49.11440344759308L166.70202212572008,54.563132696592824" style="fill:none;stroke:rgb(0,0,0);stroke-width:1;stroke-linecap:round"></path><path d="M228.2419524858768,57.51097496510057L226.24398358801028,61.143461131100395L226.24398358801028,57.14480278195828zM228.2419524858768,53.51231661595845L228.2419524858768,57.51097496510057L226.24398358801028,57.14480278195828z" style="fill:rgb(0,0,0); fill-opacity: 0.4"></path><path d="M401.55060744219725,99.86830440983702L228.2419524858768,53.51231661595845M228.2419524858768,53.51231661595845L226.24398358801034,57.14480278195828" style="fill:none;stroke:rgb(0,0,0);stroke-width:1;stroke-linecap:round"></path><path d="M169.69897523440792,49.11440338390377L166.70202188760825,60.56112015661668L166.70202188760825,54.56313263290351z" style="fill:rgb(255,20,20); fill-opacity: 0.4"></path><path d="M166.70202212572008,54.563132696592824L166.70202212572008,60.56112022030601L169.69897547251978,49.114403447593084z" style="fill:rgb(0,0,0); fill-opacity: 0.4"></path><path d="M166.70202188760825,60.56112015661668L169.69897523440792,55.11239090761694L221.56932161591374,66.14401504268072zM169.69897523440792,55.11239090761694L169.69897523440792,49.11440338390377L221.56932161591374,66.14401504268072z" style="fill:rgb(255,20,20); fill-opacity: 0.4"></path><path d="M226.24398358801034,57.14480278195828L399.5526385443308,103.50079057583685" style="fill:none;stroke:rgb(0,0,0);stroke-width:1;stroke-linecap:round"></path><path d="M217.37327938623847,87.403656562757L231.6927983278733,61.36949030781385L405.00145328419376,107.7254781016924zM405.00145328419376,107.7254781016924L231.6927983278733,61.36949030781385L231.6927983278733,32.71095411497781z" style="fill:rgb(191,148,255); fill-opacity: 0.4"></path><path d="M166.7020122536755,54.56313013785852L221.56931200047967,66.14401251456886" style="fill:none;stroke:rgb(0,0,0);stroke-width:1;stroke-linecap:round"></path><path d="M166.70202188760825,54.56313263290351L166.70202188760825,60.56112015661668L221.56932161591374,66.14401504268072zM169.69897523440792,49.11440338390377L166.70202188760825,54.56313263290351L221.56932161591374,66.14401504268072z" style="fill:rgb(255,20,20); fill-opacity: 0.4"></path><path d="M162.19375817625163,44.246055665169926L162.19375817625163,85.27147898460377L182.6925136729847,6.977484647067684z" style="fill:rgb(191,148,255); fill-opacity: 0.4"></path><path d="M217.37327938623847,58.745120369920976L217.37327938623847,87.403656562757M217.37327938623847,87.403656562757L390.681934342559,133.7596443566356" style="fill:none;stroke:rgb(0,0,0);stroke-width:1;stroke-linecap:round"></path><path d="M231.6927983278733,61.36949030781385L217.37327938623847,87.403656562757L217.37327938623847,58.745120369920976zM231.6927983278733,32.71095411497781L231.6927983278733,61.36949030781385L217.37327938623847,58.745120369920976z" style="fill:rgb(191,148,255); fill-opacity: 0.4"></path><path d="M206.71741510350822,43.382860135198555h39.05313744522776v19.52656872261384h-39.05313744522776z" style="fill:rgb(255,255,255)"></path><path d="M405.00145328419376,79.06694190885638L231.69279832787328,32.71095411497781M231.69279832787328,32.71095411497781L217.37327938623847,58.745120369920976" style="fill:none;stroke:rgb(0,0,0);stroke-width:1;stroke-linecap:round"></path><path d="M226.24398358801028,61.143461131100395L228.2419524858768,57.51097496510057L401.55060744219725,103.86696275897914zM401.55060744219725,103.86696275897914L228.2419524858768,57.51097496510057L228.2419524858768,53.51231661595845zM226.24398358801028,57.14480278195828L226.24398358801028,61.143461131100395L399.5526385443308,103.50079057583685zM226.24398358801028,57.14480278195828L399.5526385443308,103.50079057583685L228.2419524858768,53.51231661595845z" style="fill:rgb(0,0,0); fill-opacity: 0.4"></path><path d="M187.03627213050416,66.66990971222823h39.05313744522776v19.52656872261384h-39.05313744522776zM197.1929848612546,27.876842047408676h39.05313744522776v19.52656872261384h-39.05313744522776z" style="fill:rgb(255,255,255)"></path><path d="M405.00145328419376,79.06694190885638L405.00145328419376,107.72547810169243M405.00145328419376,107.72547810169243L390.681934342559,133.7596443566356" style="fill:none;stroke:rgb(0,0,0);stroke-width:1;stroke-linecap:round"></path><path d="M390.681934342559,133.7596443566356L217.37327938623847,87.403656562757L405.00145328419376,107.7254781016924zM405.00145328419376,79.06694190885639L405.00145328419376,107.7254781016924L231.6927983278733,32.71095411497781z" style="fill:rgb(191,148,255); fill-opacity: 0.4"></path><path d="M282.5030693307851,108.44951028174837h39.05313744522776v19.526568722613767h-39.05313744522776z" style="fill:rgb(255,255,255)"></path><path d="M399.5526385443308,107.49944892497896L226.24398358801028,61.143461131100395L401.55060744219725,103.86696275897914zM401.55060744219725,99.86830440983702L401.55060744219725,103.86696275897914L228.2419524858768,53.51231661595845zM226.24398358801028,61.143461131100395L399.5526385443308,107.49944892497896L399.5526385443308,103.50079057583685zM399.5526385443308,103.50079057583685L401.55060744219725,99.86830440983702L228.2419524858768,53.51231661595845z" style="fill:rgb(0,0,0); fill-opacity: 0.4"></path><path d="M217.37327938623847,58.745120369920976L390.681934342559,105.10110816379955" style="fill:none;stroke:rgb(0,0,0);stroke-width:1;stroke-linecap:round"></path><path d="M217.37327938623847,58.745120369920976L217.37327938623847,87.403656562757L390.681934342559,105.10110816379955zM217.37327938623847,58.745120369920976L390.681934342559,105.10110816379955L231.6927983278733,32.71095411497781z" style="fill:rgb(191,148,255); fill-opacity: 0.4"></path><path d="M401.5505981809953,99.86830171500684L401.5505981809953,103.86696010883746M401.5505981809953,103.86696010883746L399.55262916404064,107.49944649135033M401.5505981809953,103.86696010883746L452.0282751768416,118.23434958279455M401.55060744219725,99.86830440983702L401.55060744219725,103.86696275897914M401.55060744219725,103.86696275897914L399.5526385443308,107.49944892497896" style="fill:none;stroke:rgb(0,0,0);stroke-width:1;stroke-linecap:round"></path><path d="M390.681934342559,133.7596443566356L405.00145328419376,107.7254781016924L405.00145328419376,79.06694190885639z" style="fill:rgb(191,148,255); fill-opacity: 0.4"></path><path d="M401.55060720408545,99.86830434614772L401.55060720408545,103.86696269528983L399.552638306219,107.49944886128966z" style="fill:rgb(255,20,20); fill-opacity: 0.4"></path><path d="M399.5526385443308,107.49944892497896L401.55060744219725,103.86696275897914L401.55060744219725,99.86830440983702z" style="fill:rgb(0,0,0); fill-opacity: 0.4"></path><path d="M399.55262916404064,107.49944649135033L399.55262916404064,103.50078809751972M399.55262916404064,107.49944649135033L452.0282751768416,118.23434958279455M399.5526385443308,103.50079057583685L399.5526385443308,107.49944892497896" style="fill:none;stroke:rgb(0,0,0);stroke-width:1;stroke-linecap:round"></path><path d="M217.37327938623847,87.403656562757L390.681934342559,133.7596443566356L390.681934342559,105.10110816379955z" style="fill:rgb(191,148,255); fill-opacity: 0.4"></path><path d="M401.5505981809953,99.86830171500684L399.55262916404064,103.50078809751972M401.5505981809953,99.86830171500684L452.0282751768416,118.23434958279455M401.55060744219725,99.86830440983702L399.5526385443308,103.50079057583685M657.6645735373348,175.44334727285573L455.4711427549609,121.36136151333072M455.4711427549609,99.18809136655948L455.4711427549609,121.36136151333072M455.4711427549609,121.36136151333072L444.3920506572965,141.50414192376607" style="fill:none;stroke:rgb(0,0,0);stroke-width:1;stroke-linecap:round"></path><path d="M390.681934342559,105.10110816379955L405.00145328419376,79.06694190885639L231.6927983278733,32.71095411497781z" style="fill:rgb(191,148,255); fill-opacity: 0.4"></path><path d="M401.55060720408545,99.86830434614772L399.552638306219,107.49944886128966L399.552638306219,103.50079051214755z" style="fill:rgb(255,20,20); fill-opacity: 0.4"></path><path d="M399.5526385443308,103.50079057583685L399.5526385443308,107.49944892497896L401.55060744219725,99.86830440983702z" style="fill:rgb(0,0,0); fill-opacity: 0.4"></path><path d="M399.55262916404064,103.50078809751972L452.0282751768416,118.23434958279455" style="fill:none;stroke:rgb(0,0,0);stroke-width:1;stroke-linecap:round"></path><path d="M399.552638306219,107.49944886128966L401.55060720408545,103.86696269528983L452.0282844052185,118.23435187601059zM401.55060720408545,103.86696269528983L401.55060720408545,99.86830434614772L452.0282844052185,118.23435187601059zM399.552638306219,103.50079051214755L399.552638306219,107.49944886128966L452.0282844052185,118.23435187601059zM401.55060720408545,99.86830434614772L399.552638306219,103.50079051214755L452.0282844052185,118.23435187601059z" style="fill:rgb(255,20,20); fill-opacity: 0.4"></path><path d="M390.681934342559,105.10110816379955L390.681934342559,133.7596443566356M405.00145328419376,79.06694190885638L390.681934342559,105.10110816379955M653.4108957170904,176.7564686913086L451.21746493471653,122.6744829317836M451.21746493471653,116.67649540807041L451.21746493471653,122.6744829317836M451.21746493471653,122.6744829317836L448.2205115879168,128.12321218078333" style="fill:none;stroke:rgb(0,0,0);stroke-width:1;stroke-linecap:round"></path><path d="M431.1914042654332,113.81932018628085h39.05313744522776v19.526568722613767h-39.05313744522776z" style="fill:rgb(255,255,255)"></path><path d="M390.681934342559,105.10110816379955L390.681934342559,133.7596443566356L405.00145328419376,79.06694190885639z" style="fill:rgb(191,148,255); fill-opacity: 0.4"></path><path d="M448.2205115879168,122.12522465707016L448.2205115879168,128.12321218078333M448.2205115879168,128.12321218078333L650.4139423702907,182.20519794030835" style="fill:none;stroke:rgb(0,0,0);stroke-width:1;stroke-linecap:round"></path><path d="M451.21746493471653,122.67448293178357L448.22051158791686,128.12321218078333L448.22051158791686,122.12522465707016zM451.21746493471653,116.67649540807041L451.21746493471653,122.67448293178357L448.22051158791686,122.12522465707016z" style="fill:rgb(0,0,0); fill-opacity: 0.4"></path><path d="M653.4108957170904,170.75848116759545L451.21746493471653,116.67649540807041M451.21746493471653,116.67649540807041L448.2205115879168,122.12522465707016M444.3920506572965,119.33087177699483L444.3920506572965,141.50414192376607M444.3920506572965,141.50414192376607L646.5854814396704,195.58612768329107" style="fill:none;stroke:rgb(0,0,0);stroke-width:1;stroke-linecap:round"></path><path d="M455.47114275496085,121.36136151333069L444.3920506572966,141.50414192376607L444.3920506572966,119.33087177699483zM455.47114275496085,99.18809136655946L455.47114275496085,121.36136151333069L444.3920506572966,119.33087177699483z" style="fill:rgb(191,148,255); fill-opacity: 0.4"></path><path d="M657.6645735373348,153.2700771260845L455.4711427549609,99.18809136655948M455.4711427549609,99.18809136655948L444.3920506572965,119.33087177699483" style="fill:none;stroke:rgb(0,0,0);stroke-width:1;stroke-linecap:round"></path><path d="M444.3920506572966,141.50414192376607L455.47114275496085,121.36136151333069L657.6645735373347,175.4433472728557z" style="fill:rgb(191,148,255); fill-opacity: 0.4"></path><path d="M448.2205115879168,122.12522465707016L650.4139423702907,176.20721041659516" style="fill:none;stroke:rgb(0,0,0);stroke-width:1;stroke-linecap:round"></path><path d="M657.6645735373347,175.4433472728557L455.47114275496085,121.36136151333069L455.47114275496085,99.18809136655946z" style="fill:rgb(191,148,255); fill-opacity: 0.4"></path><path d="M428.69394314310017,109.36294660821089h39.05313744522776v19.526568722613767h-39.05313744522776z" style="fill:rgb(255,255,255)"></path><path d="M448.22051158791686,128.12321218078333L451.21746493471653,122.67448293178357L653.4108957170904,176.75646869130858zM653.4108957170904,176.75646869130858L451.21746493471653,122.67448293178357L451.21746493471653,116.67649540807041z" style="fill:rgb(0,0,0); fill-opacity: 0.4"></path><path d="M414.05504336960274,124.01302823714144h39.05313744522776v19.526568722613767h-39.05313744522776zM422.5915427500128,91.408286243964h39.05313744522776v19.526568722613767h-39.05313744522776z" style="fill:rgb(255,255,255)"></path><path d="M448.22051158791686,122.12522465707016L448.22051158791686,128.12321218078333L650.4139423702908,176.20721041659516z" style="fill:rgb(0,0,0); fill-opacity: 0.4"></path><path d="M444.3920506572965,119.33087177699483L646.5854814396704,173.41285753651982" style="fill:none;stroke:rgb(0,0,0);stroke-width:1;stroke-linecap:round"></path><path d="M448.22051158791686,122.12522465707016L650.4139423702908,176.20721041659516L451.21746493471653,116.67649540807041z" style="fill:rgb(0,0,0); fill-opacity: 0.4"></path><path d="M523.9642284432249,166.41299489922486h39.05313744522776v19.526568722613767h-39.05313744522776z" style="fill:rgb(255,255,255)"></path><path d="M646.5854814396705,195.58612768329107L444.3920506572966,141.50414192376607L657.6645735373347,175.4433472728557zM657.6645735373347,153.27007712608446L657.6645735373347,175.4433472728557L455.47114275496085,99.18809136655946zM444.3920506572966,119.33087177699483L444.3920506572966,141.50414192376607L646.5854814396705,173.41285753651982zM444.3920506572966,119.33087177699483L646.5854814396705,173.41285753651982L455.47114275496085,99.18809136655946z" style="fill:rgb(191,148,255); fill-opacity: 0.4"></path><path d="M650.4139423702908,182.20519794030835L448.22051158791686,128.12321218078333L653.4108957170904,176.75646869130858zM653.4108957170904,170.75848116759542L653.4108957170904,176.75646869130858L451.21746493471653,116.67649540807041z" style="fill:rgb(0,0,0); fill-opacity: 0.4"></path><path d="M657.6645735373348,153.2700771260845L657.6645735373348,175.44334727285573M657.6645735373348,175.44334727285573L646.5854814396704,195.58612768329107" style="fill:none;stroke:rgb(0,0,0);stroke-width:1;stroke-linecap:round"></path><path d="M448.22051158791686,128.12321218078333L650.4139423702908,182.20519794030835L650.4139423702908,176.20721041659516zM650.4139423702908,176.20721041659516L653.4108957170904,170.75848116759542L451.21746493471653,116.67649540807041z" style="fill:rgb(0,0,0); fill-opacity: 0.4"></path><path d="M444.3920506572966,141.50414192376607L646.5854814396705,195.58612768329107L646.5854814396705,173.41285753651982zM646.5854814396705,173.41285753651982L657.6645735373347,153.27007712608446L455.47114275496085,99.18809136655946zM646.5854814396705,195.58612768329107L657.6645735373347,175.4433472728557L657.6645735373347,153.27007712608446z" style="fill:rgb(191,148,255); fill-opacity: 0.4"></path><path d="M653.4108957170904,170.75848116759545L653.4108957170904,176.7564686913086M653.4108957170904,176.7564686913086L650.4139423702907,182.20519794030835M653.4109067331735,170.7584841218277L653.4109067331735,176.75647188387947M653.4109067331735,176.75647188387947L650.4139533863739,182.2052011328792M653.4109067331735,176.75647188387947L704.1086376928457,189.38779758065397" style="fill:none;stroke:rgb(0,0,0);stroke-width:1;stroke-linecap:round"></path><path d="M653.4108954392933,170.75848109329124L653.4108954392933,176.7564686170044L650.4139420924937,182.20519786600414z" style="fill:rgb(255,20,20); fill-opacity: 0.4"></path><path d="M650.4139423702908,182.20519794030835L653.4108957170904,176.75646869130858L653.4108957170904,170.75848116759542z" style="fill:rgb(0,0,0); fill-opacity: 0.4"></path><path d="M650.4139423702907,176.20721041659516L650.4139423702907,182.20519794030835M650.4139533863739,182.2052011328792L650.4139533863739,176.20721337082745M650.4139533863739,182.2052011328792L704.1086376928457,189.38779758065397M653.4108957170904,170.75848116759545L650.4139423702907,176.20721041659516M653.4109067331735,170.7584841218277L650.4139533863739,176.20721337082745M653.4109067331735,170.7584841218277L704.1086376928457,189.38779758065397M646.5854814396704,173.41285753651982L646.5854814396704,195.58612768329107M657.6645735373348,153.2700771260845L646.5854814396704,173.41285753651982" style="fill:none;stroke:rgb(0,0,0);stroke-width:1;stroke-linecap:round"></path><path d="M653.4108954392933,170.75848109329124L650.4139420924937,182.20519786600414L650.4139420924937,176.20721034229098z" style="fill:rgb(255,20,20); fill-opacity: 0.4"></path><path d="M650.4139423702908,176.20721041659516L650.4139423702908,182.20519794030835L653.4108957170904,170.75848116759542z" style="fill:rgb(0,0,0); fill-opacity: 0.4"></path><path d="M650.4139420924937,182.20519786600414L653.4108954392933,176.7564686170044L704.1086263969607,189.3877945554259zM653.4108954392933,176.7564686170044L653.4108954392933,170.75848109329124L704.1086263969607,189.3877945554259z" style="fill:rgb(255,20,20); fill-opacity: 0.4"></path><path d="M909.1781341483598,242.9505341000986L706.9847033659859,188.86854834057362M706.9847033659859,177.78191326718797L706.9847033659859,188.86854834057362M706.9847033659859,188.86854834057362L701.4451573171536,198.93993854579128M650.4139533863739,176.20721337082745L704.1086376928457,189.38779758065397" style="fill:none;stroke:rgb(0,0,0);stroke-width:1;stroke-linecap:round"></path><path d="M650.4139420924937,176.20721034229098L650.4139420924937,182.20519786600414L704.1086263969607,189.3877945554259zM653.4108954392933,170.75848109329124L650.4139420924937,176.20721034229098L704.1086263969607,189.3877945554259z" style="fill:rgb(255,20,20); fill-opacity: 0.4"></path><path d="M646.5854814396705,173.41285753651982L646.5854814396705,195.58612768329107L657.6645735373347,153.27007712608446z" style="fill:rgb(191,148,255); fill-opacity: 0.4"></path><path d="M701.4451573171536,187.85330347240568L701.4451573171536,198.93993854579128M701.4451573171536,198.93993854579128L903.6385880995276,253.0219243053163" style="fill:none;stroke:rgb(0,0,0);stroke-width:1;stroke-linecap:round"></path><path d="M706.9847033659858,188.86854834057362L701.4451573171536,198.93993854579128L701.4451573171536,187.85330347240568zM706.9847033659858,177.781913267188L706.9847033659858,188.86854834057362L701.4451573171536,187.85330347240568z" style="fill:rgb(191,148,255); fill-opacity: 0.4"></path><path d="M909.1781341483598,231.863899026713L706.9847033659859,177.78191326718797M706.9847033659859,177.78191326718797L701.4451573171536,187.85330347240568" style="fill:none;stroke:rgb(0,0,0);stroke-width:1;stroke-linecap:round"></path><path d="M671.1081500218488,186.99214240969673h39.05313744522776v19.526568722613767h-39.05313744522776zM676.8748763854537,164.96641302675155h39.05313744522776v19.526568722613767h-39.05313744522776z" style="fill:rgb(255,255,255)"></path><path d="M701.4451573171536,187.85330347240568L903.6385880995276,241.93528923193065" style="fill:none;stroke:rgb(0,0,0);stroke-width:1;stroke-linecap:round"></path><path d="M701.4451573171536,198.93993854579128L706.9847033659858,188.86854834057362L909.1781341483598,242.95053410009865zM909.1781341483598,242.95053410009865L706.9847033659858,188.86854834057362L706.9847033659858,177.781913267188zM701.4451573171536,187.85330347240568L701.4451573171536,198.93993854579128L903.6385880995276,241.9352892319307zM701.4451573171536,187.85330347240568L903.6385880995276,241.9352892319307L706.9847033659858,177.781913267188zM903.6385880995276,253.0219243053163L701.4451573171536,198.93993854579128L909.1781341483598,242.95053410009865zM909.1781341483598,231.86389902671303L909.1781341483598,242.95053410009865L706.9847033659858,177.781913267188zM701.4451573171536,198.93993854579128L903.6385880995276,253.0219243053163L903.6385880995276,241.9352892319307zM903.6385880995276,241.9352892319307L909.1781341483598,231.86389902671303L706.9847033659858,177.781913267188z" style="fill:rgb(191,148,255); fill-opacity: 0.4"></path></svg>